<?xml version="1.0" encoding="UTF-8" standalone="no"?>
<!-- Created with Inkscape (http://www.inkscape.org/) -->

<svg
   width="1083.8362mm"
   height="760.93597mm"
   viewBox="0 0 1083.8362 760.93597"
   version="1.1"
   id="svg1"
   xmlns="http://www.w3.org/2000/svg"
   xmlns:svg="http://www.w3.org/2000/svg">
  <defs
     id="defs1" />
  <g
     id="layer1"
     transform="translate(-4.2752875,-11.57671)">
    <path
       id="rect3"
       style="fill:#ffffff;stroke-width:0.264583"
       d="m 952.56883,11.57671 a 245.30261,418.81464 0 0 1 -92.86307,203.08631 344.52625,220.85461 0 0 1 -12.34963,14.08906 245.30261,418.81464 0 0 1 -7.04764,6.58978 344.52625,220.85461 0 0 1 -278.41194,99.00636 v 0.26924 h -5.87303 -78.56833 a 209.0374,331.84297 80.122038 0 0 -0.79168,0 330.81944,181.69218 0 0 0 -46.92324,-1.83917 330.81944,181.69218 0 0 0 -17.78341,0.66715 384.50763,321.65103 0 0 0 -22.40121,-0.60979 384.50763,321.65103 0 0 0 -384.5077998,321.65117 384.50763,321.65103 0 0 0 0.1875854,1.99471 H 4.2752875 V 772.51269 H 5.5940701 16.307111 1088.1115 V 656.48153 h -1.648 V 11.57671 Z" />
  </g>
</svg>
