<?xml version="1.0" encoding="UTF-8" standalone="no"?>
<!-- Created with Inkscape (http://www.inkscape.org/) -->

<svg
   width="729.1499mm"
   height="704.64386mm"
   viewBox="0 0 729.1499 704.64386"
   version="1.1"
   id="svg1"
   xmlns="http://www.w3.org/2000/svg"
   xmlns:svg="http://www.w3.org/2000/svg">
  <defs
     id="defs1" />
  <g
     id="layer1"
     transform="translate(0,1.8644858)">
    <path
       id="path1"
       style="fill:#ffffff;stroke-width:0.408394"
       d="m 265.88558,-1.8644857 a 232.06213,220.85461 0 0 0 -0.41445,3.1827515 H 175.36501 174.04674 0 V 702.77933 h 97.572339 a 277.55164,436.43506 0 0 1 -1.319299,-31.6451 277.55164,436.43506 0 0 1 208.34594,-421.8311 222.82965,181.69218 0 0 1 107.42807,-23.0358 222.82965,181.69218 0 0 1 31.60582,1.83916 199.02256,234.76657 51.375889 0 1 0.5333,0 h 52.92132 3.95583 v -0.26923 A 232.06213,220.85461 0 0 0 729.14981,7.2517537 232.06213,220.85461 0 0 0 728.2062,-1.8644857 Z" />
  </g>
</svg>
