<?xml version="1.0" encoding="UTF-8" standalone="no"?>
<!-- Created with Inkscape (http://www.inkscape.org/) -->

<svg
   version="1.1"
   id="svg1"
   width="1080"
   height="4000"
   viewBox="0 0 1080 4000"
   sodipodi:docname="WebSysBG_Left.svg"
   inkscape:version="1.3.2 (091e20e, 2023-11-25, custom)"
   xmlns:inkscape="http://www.inkscape.org/namespaces/inkscape"
   xmlns:sodipodi="http://sodipodi.sourceforge.net/DTD/sodipodi-0.dtd"
   xmlns:xlink="http://www.w3.org/1999/xlink"
   xmlns="http://www.w3.org/2000/svg"
   xmlns:svg="http://www.w3.org/2000/svg">
  <defs
     id="defs1">
    <linearGradient
       id="swatch26"
       inkscape:swatch="solid">
      <stop
         style="stop-color:#ffffff;stop-opacity:1;"
         offset="0"
         id="stop26" />
    </linearGradient>
    <linearGradient
       id="swatch25"
       inkscape:swatch="solid">
      <stop
         style="stop-color:#000000;stop-opacity:0.74351585;"
         offset="0.06511628"
         id="stop25" />
    </linearGradient>
    <color-profile
       name="AnimePalette"
       xlink:href="../../../Windows/system32/spool/drivers/color/AnimePalette.icc"
       id="color-profile2" />
    <color-profile
       name="Apple-RGB"
       xlink:href="../../../Windows/system32/spool/drivers/color/AppleRGB.icc"
       id="color-profile3" />
  </defs>
  <sodipodi:namedview
     id="namedview1"
     pagecolor="#03e005"
     bordercolor="#000000"
     borderopacity="0.24705882"
     inkscape:showpageshadow="2"
     inkscape:pageopacity="0.0"
     inkscape:pagecheckerboard="0"
     inkscape:deskcolor="#d1d1d1"
     inkscape:zoom="0.1767767"
     inkscape:cx="-1295.4196"
     inkscape:cy="1592.4045"
     inkscape:window-width="1920"
     inkscape:window-height="1046"
     inkscape:window-x="-11"
     inkscape:window-y="-11"
     inkscape:window-maximized="1"
     inkscape:current-layer="g1" />
  <g
     inkscape:groupmode="layer"
     inkscape:label="Image"
     id="g1">
    <path
       id="path91"
       style="opacity:1;fill:#ffffff;stroke:#ffffff;stroke-width:3.34603;stroke-opacity:1;paint-order:stroke fill markers"
       d="M -5.65625 -5.65625 L -5.65625 239.97461 L -5.65625 485.60547 L 39.478516 441.01172 C 88.786074 392.297 150.34077 357.47362 208.16797 345.57812 C 249.63805 337.04742 327.82959 338.05234 381.83789 347.81055 C 441.60926 358.61001 526.50018 358.57112 568.74023 347.72461 C 662.99996 323.52035 721.1548 269.1825 752.13086 176.375 C 763.43307 142.51233 780.31862 43.579216 780.54297 9.9003906 L 780.64648 -5.65625 L 387.49414 -5.65625 L -5.65625 -5.65625 z M -4 1515.3594 L -4 2010.4297 L -4 2505.5 L 24.070312 2475.0352 C 60.427686 2435.5779 93.338312 2410.9166 138.18555 2389.5234 C 190.86856 2364.3924 219.09807 2358.5281 288 2358.3984 C 319.89997 2358.3383 355.54258 2360.4751 367.20508 2363.1465 C 436.38829 2378.9938 536.07059 2376.6924 595.64453 2357.873 C 676.76881 2332.2459 737.66944 2261.7907 759.76758 2168 C 771.47701 2118.3018 780.00332 2051.773 779.97852 2010.3027 C 779.9522 1966.2308 766.9528 1874.4091 755.47266 1837.207 C 730.82596 1757.3381 679.03368 1696.6053 612.92383 1670.0469 C 555.16205 1646.8421 458.19943 1642.098 370 1658.1602 C 343.49889 1662.9863 318.16853 1664.294 274 1663.1191 C 219.19572 1661.6611 210.75672 1660.411 176.54102 1648.6836 C 114.22735 1627.3255 60.328053 1590.6947 17.621094 1540.6797 L -4 1515.3594 z M -4.90625 3515.0273 L -5.8652344 3522.0996 C -6.392225 3525.9887 -6.8791247 3639.1068 -6.9472656 3773.4746 L -7.0703125 4017.7812 L 388.1875 4017.7812 L 783.44727 4017.7812 L 782.625 4002.5781 C 782.17275 3994.2166 780.58888 3977.8294 779.10547 3966.1621 C 777.62206 3954.4949 775.75469 3939.2211 774.95508 3932.2207 C 763.58061 3832.6402 736.38639 3767.2751 686.4043 3719.3809 C 650.30797 3684.7923 611.12484 3666.5643 546.59375 3654.3359 C 530.6144 3651.3078 496.17627 3649.7116 464.56836 3650.5352 C 431.74648 3651.3904 404.65721 3654.2485 374.76562 3660.0117 C 366.59855 3661.5864 358.9636 3662.9263 357.79688 3662.9883 C 356.63015 3663.0507 349.94762 3664.0414 342.94727 3665.1895 C 316.05869 3669.5994 247.62233 3669.0416 225.56641 3664.2324 C 222.45514 3663.5539 216.77136 3662.638 212.93555 3662.1973 C 209.09975 3661.7566 204.00978 3660.8114 201.62305 3660.0957 C 199.23632 3659.3799 192.50941 3657.381 186.67578 3655.6543 C 134.31989 3640.1576 85.02649 3610.9373 44.476562 3571.3613 C 30.13636 3557.3654 15.326952 3541.5 9.6894531 3534.0918 C 7.6297479 3531.3851 4.7611221 3527.8975 3.3144531 3526.3418 C 1.8677841 3524.7862 -0.57366314 3521.603 -2.1113281 3519.2695 L -4.90625 3515.0273 z " />
    <path
       id="path93"
       style="display:none;opacity:1;fill:#ffffff;stroke:#ffffff;stroke-width:13.3841;stroke-opacity:1;paint-order:stroke fill markers"
       d="m 1097.4297,506.2793 -46.6699,45.31054 c -50.4014,48.9333 -104.18788,79.97513 -162.63285,93.85743 -39.51174,9.38513 -128.44365,9.09364 -172.53515,-0.56446 -45.3346,-9.93041 -156.01825,-10.22035 -195.16211,-0.51172 -66.96302,16.60847 -125.51976,59.4527 -154.81055,113.26953 -62.65149,115.11142 -70.15134,318.28948 -16.77148,454.34568 19.67479,50.1478 67.67075,104.3272 111.34961,125.6973 62.2822,30.4719 142.60817,37.9759 243.58789,22.7559 160.34291,-24.1675 258.0323,2.1777 348.39064,93.955 23.3345,23.701 43.062,43.4486 43.8398,43.8828 0.7778,0.4343 1.4141,-222.5873 1.4141,-495.6035 z m 0,2018.3633 -43.8399,43.0586 c -94.82638,93.1347 -189.73134,118.2472 -352.55855,93.2949 -99.98881,-15.3227 -189.37008,-4.9007 -250.37109,29.1934 -31.78931,17.7673 -77.33911,66.6687 -92.76563,99.5898 -35.58875,75.9485 -52.41953,189.5864 -41.66211,281.2871 13.77939,117.4612 41.54706,187.9048 92.54297,234.7676 28.9192,26.5754 80.90668,52.0171 122.35156,59.8769 44.91226,8.5175 132.15863,6.9931 190.1211,-3.3222 135.97829,-24.1996 248.48777,9.3796 336.58395,100.4551 20.2233,20.907 37.4058,38.1781 38.1836,38.3808 0.7778,0.2027 1.4141,-219.4462 1.4141,-488.1074 z" />
  </g>
</svg>
