<?xml version="1.0" encoding="UTF-8" standalone="no"?>
<!-- Created with Inkscape (http://www.inkscape.org/) -->

<svg
   version="1.1"
   id="svg1"
   width="1080"
   height="4000"
   viewBox="0 0 1080 4000"
   sodipodi:docname="WebSysBG_Right.svg"
   inkscape:version="1.3.2 (091e20e, 2023-11-25, custom)"
   xmlns:inkscape="http://www.inkscape.org/namespaces/inkscape"
   xmlns:sodipodi="http://sodipodi.sourceforge.net/DTD/sodipodi-0.dtd"
   xmlns:xlink="http://www.w3.org/1999/xlink"
   xmlns="http://www.w3.org/2000/svg"
   xmlns:svg="http://www.w3.org/2000/svg">
  <defs
     id="defs1">
    <linearGradient
       id="swatch26"
       inkscape:swatch="solid">
      <stop
         style="stop-color:#ffffff;stop-opacity:1;"
         offset="0"
         id="stop26" />
    </linearGradient>
    <linearGradient
       id="swatch25"
       inkscape:swatch="solid">
      <stop
         style="stop-color:#000000;stop-opacity:0.74351585;"
         offset="0.06511628"
         id="stop25" />
    </linearGradient>
    <color-profile
       name="AnimePalette"
       xlink:href="../../../Windows/system32/spool/drivers/color/AnimePalette.icc"
       id="color-profile2" />
    <color-profile
       name="Apple-RGB"
       xlink:href="../../../Windows/system32/spool/drivers/color/AppleRGB.icc"
       id="color-profile3" />
  </defs>
  <sodipodi:namedview
     id="namedview1"
     pagecolor="#03e005"
     bordercolor="#000000"
     borderopacity="0.24705882"
     inkscape:showpageshadow="2"
     inkscape:pageopacity="0.0"
     inkscape:pagecheckerboard="0"
     inkscape:deskcolor="#d1d1d1"
     inkscape:zoom="0.1767767"
     inkscape:cx="-1295.4196"
     inkscape:cy="2044.9528"
     inkscape:window-width="1920"
     inkscape:window-height="1046"
     inkscape:window-x="-11"
     inkscape:window-y="-11"
     inkscape:window-maximized="1"
     inkscape:current-layer="g1" />
  <g
     inkscape:groupmode="layer"
     inkscape:label="Image"
     id="g1">
    <path
       id="path91"
       style="display:none;opacity:1;fill:#ffffff;stroke:#ffffff;stroke-width:3.34603;stroke-opacity:1;paint-order:stroke fill markers"
       d="m -5.65625,-5.65625 v 245.63086 245.63086 l 45.134766,-44.59375 c 49.307558,-48.71472 110.862254,-83.5381 168.689454,-95.4336 41.47008,-8.5307 119.66162,-7.52578 173.66992,2.23243 59.77137,10.79946 144.66229,10.76057 186.90234,-0.0859 C 662.99996,323.52035 721.1548,269.1825 752.13086,176.375 763.43307,142.51233 780.31862,43.579216 780.54297,9.9003906 L 780.64648,-5.65625 H 387.49414 Z M -4,1515.3594 V 2010.4297 2505.5 l 28.070312,-30.4648 c 36.357374,-39.4573 69.268,-64.1186 114.115238,-85.5118 52.68301,-25.131 80.91252,-30.9953 149.81445,-31.125 31.89997,-0.06 67.54258,2.0767 79.20508,4.7481 69.18321,15.8473 168.86551,13.5459 228.43945,-5.2735 81.12428,-25.6271 142.02491,-96.0823 164.12305,-189.873 11.70943,-49.6982 20.23574,-116.227 20.21094,-157.6973 -0.0263,-44.0719 -13.02572,-135.8936 -24.50586,-173.0957 -24.6467,-79.8689 -76.43898,-140.6017 -142.54883,-167.1601 C 555.16205,1646.8421 458.19943,1642.098 370,1658.1602 c -26.50111,4.8261 -51.83147,6.1338 -96,4.9589 -54.80428,-1.458 -63.24328,-2.7081 -97.45898,-14.4355 -62.31367,-21.3581 -116.212967,-57.9889 -158.919926,-108.0039 z m -0.90625,1999.6679 -0.9589844,7.0723 c -0.5269906,3.8891 -1.0138903,117.0072 -1.0820312,251.375 l -0.1230469,244.3066 H 388.1875 783.44727 l -0.82227,-15.2031 c -0.45225,-8.3615 -2.03612,-24.7487 -3.51953,-36.416 -1.48341,-11.6672 -3.35078,-26.941 -4.15039,-33.9414 -11.37447,-99.5805 -38.56869,-164.9456 -88.55078,-212.8398 -36.09633,-34.5886 -75.27946,-52.8166 -139.81055,-65.045 -15.97935,-3.0281 -50.41748,-4.6243 -82.02539,-3.8007 -32.82188,0.8552 -59.91115,3.7133 -89.80274,9.4765 -8.16707,1.5747 -15.80202,2.9146 -16.96874,2.9766 -1.16673,0.062 -7.84926,1.0531 -14.84961,2.2012 -26.88858,4.4099 -95.32494,3.8521 -117.38086,-0.9571 -3.11127,-0.6785 -8.79505,-1.5944 -12.63086,-2.0351 -3.8358,-0.4407 -8.92577,-1.3859 -11.3125,-2.1016 -2.38673,-0.7158 -9.11364,-2.7147 -14.94727,-4.4414 -52.35589,-15.4967 -101.64929,-44.717 -142.199218,-84.293 -14.340202,-13.9959 -29.14961,-29.8613 -34.7871089,-37.2695 -2.0597052,-2.7067 -4.928331,-6.1943 -6.375,-7.75 -1.446669,-1.5556 -3.88811624,-4.7388 -5.4257812,-7.0723 z" />
    <path
       id="path93"
       style="display:inline;opacity:1;fill:#ffffff;stroke:#ffffff;stroke-width:13.3841;stroke-opacity:1;paint-order:stroke fill markers"
       d="m 1097.4297,506.2793 -46.6699,45.31054 c -50.4014,48.9333 -104.18788,79.97513 -162.63285,93.85743 -39.51174,9.38513 -128.44365,9.09364 -172.53515,-0.56446 -45.3346,-9.93041 -156.01825,-10.22035 -195.16211,-0.51172 -66.96302,16.60847 -125.51976,59.4527 -154.81055,113.26953 -62.65149,115.11142 -70.15134,318.28948 -16.77148,454.34568 19.67479,50.1478 67.67075,104.3272 111.34961,125.6973 62.2822,30.4719 142.60817,37.9759 243.58789,22.7559 160.34291,-24.1675 258.0323,2.1777 348.39064,93.955 23.3345,23.701 43.062,43.4486 43.8398,43.8828 0.7778,0.4343 1.4141,-222.5873 1.4141,-495.6035 z m 0,2018.3633 -43.8399,43.0586 c -94.82638,93.1347 -189.73134,118.2472 -352.55855,93.2949 -99.98881,-15.3227 -189.37008,-4.9007 -250.37109,29.1934 -31.78931,17.7673 -77.33911,66.6687 -92.76563,99.5898 -35.58875,75.9485 -52.41953,189.5864 -41.66211,281.2871 13.77939,117.4612 41.54706,187.9048 92.54297,234.7676 28.9192,26.5754 80.90668,52.0171 122.35156,59.8769 44.91226,8.5175 132.15863,6.9931 190.1211,-3.3222 135.97829,-24.1996 248.48777,9.3796 336.58395,100.4551 20.2233,20.907 37.4058,38.1781 38.1836,38.3808 0.7778,0.2027 1.4141,-219.4462 1.4141,-488.1074 z" />
  </g>
</svg>
