<?xml version="1.0" encoding="UTF-8" standalone="no"?>
<!-- Created with Inkscape (http://www.inkscape.org/) -->

<svg
   version="1.1"
   id="svg1"
   width="1080"
   height="4000"
   viewBox="0 0 1080 4000"
   sodipodi:docname="WebSys_Bg.svg"
   inkscape:version="1.3.2 (091e20e, 2023-11-25, custom)"
   xmlns:inkscape="http://www.inkscape.org/namespaces/inkscape"
   xmlns:sodipodi="http://sodipodi.sourceforge.net/DTD/sodipodi-0.dtd"
   xmlns:xlink="http://www.w3.org/1999/xlink"
   xmlns="http://www.w3.org/2000/svg"
   xmlns:svg="http://www.w3.org/2000/svg">
  <defs
     id="defs1">
    <linearGradient
       id="linearGradient30"
       inkscape:swatch="gradient">
      <stop
         style="stop-color:#000000;stop-opacity:1;"
         offset="0"
         id="stop31" />
      <stop
         style="stop-color:#313131;stop-opacity:0;"
         offset="1"
         id="stop32" />
    </linearGradient>
    <linearGradient
       id="swatch26"
       inkscape:swatch="solid">
      <stop
         style="stop-color:#ffffff;stop-opacity:1;"
         offset="0"
         id="stop26" />
    </linearGradient>
    <linearGradient
       id="swatch25"
       inkscape:swatch="solid">
      <stop
         style="stop-color:#000000;stop-opacity:0.74351585;"
         offset="0.06511628"
         id="stop25" />
    </linearGradient>
    <color-profile
       name="AnimePalette"
       xlink:href="../../../Windows/system32/spool/drivers/color/AnimePalette.icc"
       id="color-profile2" />
    <color-profile
       name="Apple-RGB"
       xlink:href="../../../Windows/system32/spool/drivers/color/AppleRGB.icc"
       id="color-profile3" />
    <linearGradient
       inkscape:collect="always"
       xlink:href="#linearGradient30"
       id="linearGradient32"
       x1="-8.3668302"
       y1="2004"
       x2="1100.366"
       y2="2004"
       gradientUnits="userSpaceOnUse" />
    <filter
       inkscape:label="Drop Shadow"
       inkscape:menu="Morphology"
       inkscape:menu-tooltip="Blurred colorized contour, filled inside"
       style="color-interpolation-filters:sRGB;"
       id="filter76"
       x="-0.1396578"
       y="-0.038277403"
       width="1.2861586"
       height="1.085839">
      <feColorMatrix
         values="1 0 0 0 0 0 1 0 0 0 0 0 1 0 0 0 0 0 1 0 "
         result="fbSourceGraphic"
         id="feColorMatrix75" />
      <feGaussianBlur
         stdDeviation="3"
         result="result1"
         id="feGaussianBlur75" />
      <feOffset
         dx="2"
         dy="2"
         result="result6"
         id="feOffset75" />
      <feComposite
         k2="2"
         operator="in"
         result="result2"
         in="result6"
         in2="result1"
         id="feComposite75" />
      <feColorMatrix
         values="110"
         result="result3"
         type="hueRotate"
         id="feColorMatrix76" />
      <feBlend
         mode="screen"
         in="result2"
         in2="result3"
         result="result4"
         id="feBlend76" />
      <feConvolveMatrix
         order="3 3"
         kernelMatrix="-2 0 2 0 4 0 2 0 2"
         divisor="2"
         bias="0"
         targetX="0"
         in="result4"
         result="result5"
         id="feConvolveMatrix76" />
      <feComposite
         operator="atop"
         in="result2"
         in2="result5"
         id="feComposite76"
         result="fbSourceGraphic" />
      <feColorMatrix
         result="fbSourceGraphicAlpha"
         in="fbSourceGraphic"
         values="0 0 0 -1 0 0 0 0 -1 0 0 0 0 -1 0 0 0 0 1 0"
         id="feColorMatrix90" />
      <feFlood
         id="feFlood90"
         result="flood"
         in="fbSourceGraphic"
         flood-opacity="0.498039"
         flood-color="rgb(0,0,0)" />
      <feGaussianBlur
         id="feGaussianBlur90"
         result="blur"
         in="fbSourceGraphic"
         stdDeviation="60.256409" />
      <feOffset
         id="feOffset90"
         result="offset"
         in="blur"
         dx="5.555555"
         dy="35.396824" />
      <feComposite
         id="feComposite90"
         result="comp1"
         operator="in"
         in="flood"
         in2="offset" />
      <feComposite
         id="feComposite91"
         result="comp2"
         operator="over"
         in="fbSourceGraphic"
         in2="comp1" />
    </filter>
  </defs>
  <sodipodi:namedview
     id="namedview1"
     pagecolor="#03e005"
     bordercolor="#000000"
     borderopacity="0.24705882"
     inkscape:showpageshadow="2"
     inkscape:pageopacity="0.0"
     inkscape:pagecheckerboard="0"
     inkscape:deskcolor="#d1d1d1"
     inkscape:zoom="0.25"
     inkscape:cx="-80"
     inkscape:cy="1534"
     inkscape:window-width="1920"
     inkscape:window-height="1046"
     inkscape:window-x="-11"
     inkscape:window-y="-11"
     inkscape:window-maximized="1"
     inkscape:current-layer="g1" />
  <g
     inkscape:groupmode="layer"
     inkscape:label="Image"
     id="g1">
    <path
       id="path16"
       style="opacity:1;mix-blend-mode:hard-light;fill:#ffffff;stroke:url(#linearGradient32);stroke-width:4.732;paint-order:stroke fill markers;stroke-opacity:1;filter:url(#filter76)"
       d="m -6,-10 0.087891,250.5 0.085937,250.5 8.4140625,-9.79688 c 4.6270798,-5.38777 21.0121245,-22.48779 36.4121095,-38 31.449889,-31.67902 59.105272,-52.58846 89,-67.29296 19.02258,-9.35675 58.59905,-24.91907 68,-26.73828 2.75,-0.53216 7.25,-1.45749 10,-2.05665 21.81348,-4.75265 50.6272,-7.2517 81.78711,-7.0957 19.36712,0.097 37.87483,0.52263 41.12891,0.94727 16.07576,2.09777 26.46086,3.57508 30.08398,4.27734 4.53358,0.87874 21.46114,3.82222 38.5,6.69531 50.39897,8.49829 116.17761,8.12912 164.5,-0.92187 63.9671,-11.98129 118.6374,-46.37943 154.65234,-97.30664 10.94199,-15.47259 28.9534,-51.0215 35.32032,-69.71094 9.28809,-27.26423 18.08647,-68.17519 21.93554,-102 1.06398,-9.349991 3.26412,-27.350013 4.88868,-40 1.62457,-12.649987 3.26277,-29.525008 3.64257,-37.5 L 783.13086,-10 H 388.56445 Z m 1102.5,512.07617 c -0.825,0.0416 -4.65,4.28968 -8.5,9.43945 -13.5757,18.15888 -62.7317,65.25037 -83.4043,79.90235 -22.95177,16.26733 -51.00071,30.93055 -77.5957,40.5625 -9.89999,3.5855 -19.8,7.288 -22,8.22851 -2.2,0.94053 -6.475,2.17765 -9.5,2.75 -3.025,0.57236 -7.525,1.44482 -10,1.9375 -20.37308,4.05556 -43.56528,6.29534 -68.11914,6.83204 -4.66704,0.0678 -9.0471,0.1882 -14.10742,0.1914 -1.00436,6.4e-4 -1.59455,-0.0228 -2.56836,-0.0234 -17.33239,-0.14161 -33.64704,-0.44166 -35.70508,-0.72656 -2.2,-0.30454 -9.40001,-1.25717 -16,-2.11523 -6.59999,-0.85805 -13.8,-1.89252 -16,-2.29883 -37.5417,-6.93334 -53.54815,-9.13977 -83,-11.44531 -147.16781,-11.52063 -246.84803,35.90638 -296.60742,141.123 -19.92251,42.1263 -27.22791,71.48347 -37.46289,150.56641 -8.16935,63.12242 -8.16935,86.8776 0,150 10.23498,79.0829 17.54038,108.4401 37.46289,150.5664 18.54412,39.2118 40.47374,66.4504 74.12695,92.0684 51.14292,38.9318 130.99173,56.5971 222.55859,49.2363 32.81683,-2.6381 59.4107,-6.1771 75.92188,-10.1016 2.75,-0.6536 7.25,-1.4845 10,-1.8476 2.75,-0.3631 9.50001,-1.2981 15,-2.0762 7.1943,-1.0178 11.64208,-1.5019 17.125,-1.873 2.21743,-0.1261 4.49848,-0.2354 6.80273,-0.334 6.15135,-0.2469 12.74053,-0.3983 26.07227,-0.5293 29.71663,-0.2921 55.98601,1.7705 77.07812,6.0508 6.00718,1.219 12.88066,2.4951 15.2754,2.8359 9.67175,1.3766 43.08742,14.1273 66.52148,25.3828 16.03134,7.7 33.09561,18.0259 48,29.0488 23.6606,17.4989 65.0109,57.2737 79.0859,76.0723 4.324,5.775 8.5753,10.5 9.4493,10.5 0.8739,0 1.5898,-225.0003 1.5898,-500 0,-274.99972 -0.675,-499.96543 -1.5,-499.92383 z M -5.9003906,1513 l -0.048828,497.5 c -0.027504,273.6247 0.6242196,497.4658 1.4492188,497.4238 0.8249992,-0.042 4.65000385,-4.1852 8.5,-9.209 20.1788638,-26.3314 56.8704928,-60.9118 89.4863278,-84.3359 22.796862,-16.3724 85.370062,-44.5661 105.160152,-47.3828 2.39474,-0.3408 9.26822,-1.6169 15.2754,-2.8359 21.09211,-4.2803 47.36149,-6.3429 77.07812,-6.0508 15.40605,0.1514 23.62852,0.2678 30.12891,0.6113 0.34666,0.019 0.67957,0.045 1.02539,0.064 6.29775,0.3617 10.92855,0.9405 18.8457,2.0605 5.49999,0.7781 12.25,1.7131 15,2.0762 2.75,0.3631 7.25,1.194 10,1.8476 16.51118,3.9245 43.10505,7.4635 75.92188,10.1016 36.67346,2.9481 79.48855,1.4096 111.07812,-3.9902 101.28826,-17.3137 168.00286,-75.9899 201.85547,-177.5332 6.16213,-18.4837 16.10041,-66.9048 18.95312,-92.3477 1.11,-9.9 3.44029,-28.35 5.17969,-41 4.034,-29.3388 4.03692,-68.6359 0.006,-98 -1.73658,-12.65 -4.02746,-30.65 -5.08984,-40 -2.3308,-20.5137 -8.50677,-53.9225 -13.71094,-74.168 -12.85455,-50.0075 -35.88664,-93.1047 -67.07227,-125.5019 -50.62287,-52.5898 -116.20471,-76.1168 -213.12109,-76.459 -25.75405,-0.091 -77.85764,4.3292 -94.96484,8.0566 -13.62935,2.9696 -29.56939,5.7853 -40.11914,7.0879 -5.54592,0.6847 -12.74593,1.5949 -16,2.0215 -4.48787,0.5884 -11.80125,0.915 -20.51954,1.0293 -0.31957,0 -0.72339,0 -1.04687,0 -26.44375,0.2925 -65.3791,-1.3439 -81.34961,-3.9375 -30.98911,-5.0326 -32.10494,-5.3058 -54.96094,-13.498 -59.58623,-21.3574 -114.35155,-60.0587 -156.337888,-110.4786 -3.136007,-3.7659 -9.0528986,-10.5159 -13.1503906,-15 z M 1097.9004,2519 l -7.4512,8.1523 c -4.0975,4.4841 -10.0144,11.2341 -13.1504,15 -30.9877,37.2121 -76.1991,73.6667 -115.19919,92.8868 -19.59764,9.6581 -57.77174,24.6127 -67.09961,26.2871 -39.1738,7.0319 -56.93579,8.7808 -89,8.7578 -4.47312,0 -8.37751,-0.111 -12.7168,-0.1641 -12.44388,-0.3127 -25.03134,-0.9332 -37.42382,-1.9433 C 742.97814,2666.2377 728.33501,2664.0771 717,2662 c -120.95514,-22.1645 -223.46716,-8.197 -287,39.1035 -61.46625,45.7619 -97.53324,115.3292 -109.85742,211.8965 -1.12308,8.8 -3.42469,26.35 -5.11524,39 -4.94269,36.985 -6.49926,56.2912 -5.64843,70.082 1.3072,21.1879 12.46656,105.4702 16.67187,125.918 25.81209,125.5077 95.44445,199.339 207.65039,220.1699 42.60814,7.9101 107.39386,8.2257 156.29883,0.7617 10.44999,-1.5949 22.15,-3.3828 26,-3.9726 3.85,-0.5899 9.25,-1.6181 12,-2.2852 2.75,-0.6671 6.8,-1.392 9,-1.6113 6.64665,-0.6625 27.66587,-3.3547 33,-4.2266 10.06569,-1.6455 63.44964,-0.8901 79,1.1172 27.05291,3.4921 46.25017,7.0792 54,10.0918 2.2,0.8552 11.20001,3.9489 20,6.875 57.82402,19.2271 114.2781,60.5784 161.8984,118.586 6.5444,7.9719 12.1694,14.4941 12.5,14.4941 0.3306,0 0.5778,-222.5253 0.5508,-494.5 z M -5.8925781,3517 -5.9453125,3767.5 -6,4018 h 394.56445 394.56641 l -0.69141,-14.5 c -0.3798,-7.975 -2.018,-24.85 -3.64257,-37.5 -1.62456,-12.65 -3.8247,-30.65 -4.88868,-40 -5.37503,-47.2346 -16.1884,-90.2317 -31.40234,-124.8672 C 708.40325,3723.4963 648.30324,3675.285 564,3657.9355 c -27.23601,-5.605 -29.05952,-5.7998 -68.08398,-7.2578 -36.11097,-1.3491 -72.63706,1.1696 -108.91602,7.5098 -22.98379,4.0167 -37.0788,6.263 -49.3418,7.7656 -5.94553,0.59 -11.91699,1.2417 -17.77734,1.6407 -0.38631,0.024 -0.78628,0.055 -1.17383,0.078 -4.93974,0.3258 -9.74308,0.415 -14.60742,0.6054 -5.29073,0.1037 -10.3738,0.2118 -17.09961,0.2188 -59.19604,0.061 -94.52438,-7.052 -144.03516,-28.9981 -28.73038,-12.735 -47.972048,-24.6991 -75.087887,-46.6914 -13.580762,-11.0145 -45.481339,-42.5969 -55.283203,-54.7304 -3.0761173,-3.8079 -8.4938294,-10.1079 -12.0390625,-14 z" />
  </g>
</svg>
