<?xml version="1.0" encoding="UTF-8" standalone="no"?>
<svg
   version="1.1"
   width="640"
   height="482"
   id="svg101"
   sodipodi:docname="CSD_Floor_Inkscape.svg"
   inkscape:version="1.3.2 (091e20e, 2023-11-25, custom)"
   xmlns:inkscape="http://www.inkscape.org/namespaces/inkscape"
   xmlns:sodipodi="http://sodipodi.sourceforge.net/DTD/sodipodi-0.dtd"
   xmlns="http://www.w3.org/2000/svg"
   xmlns:svg="http://www.w3.org/2000/svg">
  <defs
     id="defs101">
    <inkscape:path-effect
       effect="fillet_chamfer"
       id="path-effect19"
       is_visible="true"
       lpeversion="1"
       nodesatellites_param="F,0,0,1,0,0.22288446,0,1 @ F,0,0,1,0,0,0,1 @ F,0,0,1,0,0,0,1 @ F,0,0,1,0,13.579705,0,1"
       radius="0"
       unit="px"
       method="auto"
       mode="F"
       chamfer_steps="1"
       flexible="false"
       use_knot_distance="true"
       apply_no_radius="true"
       apply_with_radius="true"
       only_selected="false"
       hide_knots="false" />
    <clipPath
       clipPathUnits="userSpaceOnUse"
       id="clipPath99">
      <path
         id="path100"
         style="fill:#ff0000;fill-opacity:1;fill-rule:nonzero;stroke:none"
         d="M 0.64257812,0.3828125 V 482.38281 H 640.64258 V 0.3828125 Z M 461.11523,69.796875 c 0.14444,-0.01253 0.27968,0.130613 0.22266,0.400391 -0.0346,0.163503 -0.0841,0.3239 -0.13086,0.484375 -0.0405,0.124908 -0.0581,0.254761 -0.084,0.382812 0.0397,0.02311 0.0806,0.05533 0.12109,0.09766 0.0403,0.0421 0.0804,0.08343 0.12109,0.125 0.003,-0.01096 0.005,-0.02225 0.008,-0.0332 0.0659,-0.245811 0.12677,-0.496841 0.25195,-0.720703 0.0213,-0.03609 0.0414,-0.0725 0.0645,-0.107422 0.0148,-0.02229 0.0318,-0.04192 0.0488,-0.0625 0.0736,-0.08892 0.15615,-0.174815 0.25977,-0.228515 0.0352,-0.01319 0.0697,-0.02767 0.10547,-0.03906 0.0119,-0.0038 0.0248,-0.004 0.0371,-0.0059 0.0698,-0.01091 0.14024,-0.02022 0.21094,-0.01172 0.1251,0.0089 0.25151,0.01841 0.37305,0.05078 0.0285,0.0097 0.0579,0.01809 0.0859,0.0293 0.0973,0.03905 0.18251,0.108878 0.25781,0.179688 0.0189,0.02236 0.0391,0.04491 0.0566,0.06836 0.0774,0.103577 0.11631,0.228901 0.13281,0.355469 0.002,0.03196 0.005,0.06367 0.006,0.0957 0.003,0.122897 -0.0153,0.245682 -0.0332,0.367187 0.27847,0.0098 0.27373,-0.04738 0.27539,0.117188 -0.0215,0.138208 -0.0462,0.276763 -0.0605,0.416015 -0.003,0.03194 -0.004,0.06371 -0.006,0.0957 0.0726,-0.0043 0.072,0.01439 0.0586,0.130859 v 0.002 c 0.002,0.0014 0.002,3.12e-4 0.004,0.002 0.10619,0.05511 0.20343,0.124112 0.29493,0.201172 0.10747,0.08445 0.22478,0.191903 0.23828,0.339844 0.004,0.04734 0.011,0.104588 -0.0176,0.142578 -0.0543,0.07222 -0.14159,0.110476 -0.21289,0.166016 -0.0863,0.0062 -0.17377,0.0018 -0.25977,-0.0078 -0.11747,-0.01463 -0.23403,-0.03432 -0.33594,-0.09766 -0.0101,0.0845 -0.0265,0.167732 -0.0547,0.248047 -0.015,0.03051 -0.0283,0.0621 -0.0449,0.0918 -0.006,0.01149 -0.0154,0.02093 -0.0234,0.03125 -0.063,0.07966 -0.14319,0.14395 -0.24805,0.15625 -0.0907,0.0087 -0.18244,0.0054 -0.27344,0.0039 -0.0996,-8e-4 -0.19943,-0.0044 -0.29883,-0.0098 -0.13654,-0.0073 -0.27313,-0.01305 -0.40624,-0.04687 -0.14478,-0.03927 -0.28449,-0.0975 -0.4004,-0.195312 -0.0232,-0.02245 -0.0467,-0.04447 -0.0684,-0.06836 -0.0142,-0.01559 -0.0268,-0.03192 -0.0391,-0.04883 -0.066,-0.0011 -0.13134,-0.0024 -0.19726,-0.0059 -0.12696,-0.0069 -0.25987,-0.01258 -0.37696,-0.06641 -0.0219,-0.01331 -0.0454,-0.02443 -0.0664,-0.03906 -0.0779,-0.05427 -0.13012,-0.140782 -0.16602,-0.226562 -0.007,-0.02447 -0.0155,-0.04745 -0.0215,-0.07227 -0.0204,-0.08971 -0.0113,-0.18246 -0.0117,-0.273437 10e-4,-0.120508 0.004,-0.241047 0.0117,-0.361329 0.0117,-0.187731 0.0297,-0.376331 0.0566,-0.5625 0.0372,-0.249301 0.084,-0.495566 0.16015,-0.736328 0.0388,-0.141707 0.0825,-0.284919 0.10743,-0.429687 0.0364,-0.21136 0.15524,-0.314472 0.26757,-0.324219 z m 2.38282,2.189453 c -0.006,0.05541 -0.0154,0.135641 -0.0195,0.244141 0.007,0.01726 0.0138,0.03052 0.0195,0.04297 0.0147,-0.0296 0.0275,-0.07275 0.0547,-0.144532 -0.007,-0.02988 -0.007,-0.06176 -0.0195,-0.08984 -0.011,-0.02492 -0.0244,-0.04122 -0.0352,-0.05273 z m -1.20508,-1.419922 c -0.0258,6.37e-4 -0.0499,0.0075 -0.0762,0.01172 -0.0112,0.0018 -0.0229,0.0013 -0.0332,0.0059 -0.008,0.0035 0.0164,-0.0013 0.0254,-0.002 -0.0675,0.05188 -0.11885,0.121653 -0.16015,0.195313 -0.0777,0.144988 -0.12715,0.302884 -0.17188,0.460937 0.0268,-0.02215 0.0542,-0.04332 0.082,-0.06445 0.0602,-0.04679 0.12486,-0.09126 0.19336,-0.125 0.0131,-0.0065 0.0246,-0.01538 0.0391,-0.01758 0.0527,-0.0082 0.10695,-0.0074 0.16015,-0.01172 0.14755,0.06947 0.1382,0.03728 0.2168,0.216797 0.011,0.02396 0.01,0.05204 0.008,0.07813 -0.007,0.09477 -0.0421,0.184528 -0.0723,0.273438 -0.0259,0.09091 -0.0685,0.175025 -0.10938,0.259765 -0.0263,0.0544 -0.0561,0.09988 -0.0879,0.134766 0.0824,-0.0062 0.16389,-0.01296 0.24609,-0.02148 0.0341,-0.06541 0.0634,-0.132306 0.0781,-0.205079 0.0328,-0.184891 0.0814,-0.367626 0.11328,-0.552734 0.0138,-0.12972 0.0457,-0.263814 0.0254,-0.394531 -0.007,-0.03954 -0.0251,-0.117502 -0.0644,-0.138672 -0.0337,-0.02355 -0.0828,-0.06851 -0.125,-0.07031 -0.0854,-0.0199 -0.17257,-0.02575 -0.25977,-0.03125 -0.009,-0.0013 -0.0188,-0.0022 -0.0273,-0.002 z m 1.19531,0.826172 c -0.003,0.006 -0.004,0.01139 -0.006,0.01758 0.006,6.2e-4 0.008,-0.02328 0.006,-0.01758 z m -2.45508,0.253906 c -0.006,0.07687 -0.0151,0.153417 -0.0195,0.230469 -0.005,0.112876 -0.008,0.226864 -0.01,0.339844 -8e-5,0.01754 8e-5,0.03519 0,0.05273 0,0.03469 6.6e-4,0.07495 0.008,0.111328 0.0126,-1.9e-4 0.0246,0.002 0.0371,0.0039 -0.003,-0.0077 -0.005,-0.01583 -0.008,-0.02344 0.0188,-0.02162 0.0357,-0.04356 0.0527,-0.06641 3.8e-4,-0.0011 0.002,-0.0029 0.002,-0.0039 0.0149,-0.04054 0.0254,-0.05011 0.0605,-0.09766 0.006,-0.0052 0.0118,-0.01029 0.0176,-0.01563 0.0101,-0.01609 0.0195,-0.03256 0.0293,-0.04883 0.004,-0.03902 0.009,-0.07816 0.0137,-0.117187 0.006,-0.04699 0.022,-0.09193 0.0293,-0.138672 -0.0195,-0.0221 -0.0391,-0.0443 -0.0586,-0.06641 -0.0497,-0.055 -0.10178,-0.108291 -0.1543,-0.160157 z m -0.0215,0.734375 c 10e-4,0.0051 -0.002,0.01078 0,0.01563 0.002,0.0066 0.003,-0.0028 0.004,-0.002 0.006,0.0051 0.0102,0.0089 0.0117,0.0098 -0.002,-0.003 -0.008,-0.0127 -0.0137,-0.01758 -0.007,-0.0018 -0.0136,-0.0057 -0.002,-0.0059 z m 1.71875,0.1875 c -0.0285,0.03121 -0.0596,0.06177 -0.0918,0.08984 -0.0289,0.02241 -0.0558,0.04572 -0.0859,0.06641 -0.0227,0.01562 -0.0472,0.03104 -0.0723,0.04492 0.0308,5.14e-4 0.061,0.0014 0.0918,0.002 0.0435,2.87e-4 0.0874,-1.47e-4 0.13085,0 0.0157,-0.06667 0.0218,-0.135009 0.0274,-0.203125 z m 0.0469,0.191407 c -0.005,0.0013 -0.0146,0.007 -0.0273,0.01367 0.0234,0.0024 0.0268,0.0083 0.0234,-0.0039 0.01,-0.0086 0.009,-0.0109 0.004,-0.0098 z" />
    </clipPath>
    <clipPath
       clipPathUnits="userSpaceOnUse"
       id="clipPath102">
      <path
         id="path103"
         style="fill:#ff0000;fill-opacity:1;fill-rule:nonzero;stroke:none"
         d="m 425.78906,71.419922 v 0.929687 h 34.37891 c 1.2e-4,-0.105598 -6.1e-4,-0.210768 0,-0.316406 -1.1e-4,-0.02798 6e-5,-0.05599 0,-0.08398 -0.003,-0.0125 -0.008,-0.02452 -0.01,-0.03711 -0.007,-0.03778 0.005,-0.05966 0.01,-0.08789 3e-5,-0.04298 -2.1e-4,-0.08596 0,-0.128907 1.9e-4,-0.0919 4e-5,-0.183571 0,-0.27539 z m 37.70508,0 c -0.0181,0.112289 -0.0372,0.224869 -0.0488,0.33789 -0.003,0.03194 -0.004,0.06371 -0.006,0.0957 0.0726,-0.0043 0.072,0.01439 0.0586,0.130859 v 0.002 c 0.002,0.0014 0.002,3.12e-4 0.004,0.002 0.10619,0.05511 0.20343,0.124112 0.29493,0.201172 0.058,0.04556 0.1182,0.09846 0.16406,0.160156 h 24.83008 v -0.929687 z m 0.004,0.566406 c -0.006,0.05541 -0.0154,0.135641 -0.0195,0.244141 0.007,0.01726 0.0138,0.03052 0.0195,0.04297 0.0147,-0.0296 0.0275,-0.07275 0.0547,-0.144532 -0.007,-0.02988 -0.007,-0.06176 -0.0195,-0.08984 -0.011,-0.02492 -0.0244,-0.04122 -0.0352,-0.05273 z m -1.08985,-0.167969 c -0.005,0.0097 -0.009,0.01956 -0.0137,0.0293 -0.0263,0.0544 -0.0561,0.09988 -0.0879,0.134766 0.0615,-0.0046 0.12248,-0.0099 0.18359,-0.01563 -0.004,-0.0074 -0.01,-0.01408 -0.0137,-0.02148 -0.0235,-0.0423 -0.0462,-0.08439 -0.0684,-0.126953 z" />
    </clipPath>
  </defs>
  <sodipodi:namedview
     id="namedview101"
     pagecolor="#ffffff"
     bordercolor="#000000"
     borderopacity="0.25"
     inkscape:showpageshadow="2"
     inkscape:pageopacity="0.0"
     inkscape:pagecheckerboard="0"
     inkscape:deskcolor="#d1d1d1"
     inkscape:zoom="1.4142136"
     inkscape:cx="231.93102"
     inkscape:cy="223.7993"
     inkscape:window-width="1920"
     inkscape:window-height="1046"
     inkscape:window-x="-11"
     inkscape:window-y="-11"
     inkscape:window-maximized="1"
     inkscape:current-layer="svg101" />
  <path
     id="rect18-8-6-8-1"
     style="fill:#000000;stroke-width:1.0048"
     d="M 3.8867188 1.890625 L 3.8867188 219.6875 L 16.074219 219.6875 L 16.074219 219.60742 L 185.57031 219.60742 L 185.57031 220.36523 L 186.78711 220.36523 L 186.78711 223.68164 L 187.81445 223.68164 L 187.81445 225.45312 L 188.70703 225.45312 L 188.70703 226.70117 L 189.50781 226.70117 L 189.50781 227.30469 L 190.07227 227.30469 L 190.07227 227.93555 L 190.67773 227.93555 L 190.67773 228.91992 L 191.70117 228.91992 L 191.70117 229.52344 L 192.64648 229.52344 L 192.64648 230.0625 L 193.19922 230.0625 L 193.19922 230.6543 L 194.68164 230.6543 L 194.68164 231.20508 L 196.62695 231.20508 L 196.62695 231.99219 L 198.35742 231.99219 L 198.35742 232.45703 L 201.55078 232.45703 L 201.55078 220.0293 L 233.14648 220.0293 L 233.14648 232.20898 L 234.94727 232.20898 L 234.94727 232.51562 L 236.91602 232.51562 L 236.91602 231.29883 L 240.23242 231.29883 L 240.23242 230.27148 L 242.00391 230.27148 L 242.00391 229.37891 L 243.25195 229.37891 L 243.25195 228.57812 L 243.85547 228.57812 L 243.85547 228.01367 L 244.48633 228.01367 L 244.48633 227.41016 L 245.4707 227.41016 L 245.4707 226.38477 L 246.07422 226.38477 L 246.07422 225.44141 L 246.61328 225.44141 L 246.61328 224.88672 L 247.20508 224.88672 L 247.20508 223.4043 L 247.75586 223.4043 L 247.75586 221.45898 L 248.54297 221.45898 L 248.54297 220.77539 L 419.30859 220.77539 L 419.30859 220.81055 L 426.66406 220.81055 L 426.66406 212.36133 L 488.81445 212.36133 L 488.81445 212.26953 L 488.83203 212.26953 L 488.83203 71.654297 L 488.79102 71.654297 L 488.79102 71.419922 L 466.55273 71.419922 C 466.55185 71.427717 466.55209 71.435595 466.55078 71.443359 C 466.53349 71.611143 466.51081 71.780417 466.50781 71.949219 C 466.50725 72.08334 466.5148 72.21678 466.5332 72.349609 L 487.81836 72.349609 L 487.81836 80 L 483.59961 80 L 487.08398 75.867188 L 486.34375 75.189453 L 482.29102 80 L 431.72266 80 L 427.65039 75.921875 L 427.03516 76.71875 L 430.30859 80 L 426.66406 80 L 426.66406 72.349609 L 445.88477 72.349609 C 445.87137 72.31996 445.86328 72.282076 445.86328 72.236328 L 445.86328 72.03125 L 445.86328 71.830078 L 445.86328 71.589844 C 445.81818 71.533263 445.77047 71.478708 445.72852 71.419922 L 426.66406 71.419922 L 426.66406 15.306641 L 419.30859 15.306641 L 419.30859 211.33008 L 247.55078 211.33008 L 247.55078 216.53516 L 234.07031 216.53516 L 234.07031 212.07617 L 221.25391 212.07617 L 221.25391 15.244141 L 533.41992 15.244141 L 533.41992 69.982422 L 539.22656 69.982422 L 537.78516 69.990234 L 537.86523 84.917969 L 538.49609 84.914062 L 538.49805 85.101562 L 533.72266 85.101562 L 533.72266 98.759766 L 537.79102 98.759766 L 537.71289 113.35547 L 539.46289 113.36523 L 539.5293 113.36523 L 539.5293 113.67383 L 541.51562 113.68555 L 541.52148 112.45703 L 544.86914 112.47461 L 544.875 111.4375 L 546.66211 111.44531 L 546.66797 110.54492 L 547.92773 110.55078 L 547.93164 109.74219 L 548.54102 109.74609 L 548.54492 109.17578 L 549.18164 109.17969 L 549.18359 108.56836 L 550.17773 108.57422 L 550.18359 107.54102 L 550.79297 107.54297 L 550.79688 106.58984 L 551.3418 106.5918 L 551.34375 106.0332 L 551.94141 106.03711 L 551.94922 104.53906 L 552.50586 104.54297 L 552.51562 102.57812 L 553.31055 102.58203 L 553.31836 100.83594 L 553.78906 100.83789 L 553.80469 97.613281 L 539.81445 97.541016 L 539.81445 94.347656 L 624.55469 94.347656 L 624.55469 167.26367 L 539.46289 167.26367 L 539.46289 113.36523 L 533.36914 113.36523 L 533.36914 174.16016 L 538.23828 174.16016 L 538.23828 174.19922 L 624.55469 174.19922 L 624.55469 219.82031 L 625.43164 219.82031 L 625.43164 262.4707 L 624.78711 262.4707 L 624.78711 262.54492 L 607.9668 262.54492 L 607.90234 250.5293 L 604.57227 250.54688 L 604.57422 251.01172 L 602.77148 251.01953 L 602.77539 251.80664 L 600.74609 251.81641 L 600.75 252.36719 L 599.20508 252.375 L 599.20703 252.9668 L 598.63086 252.9707 L 598.63281 253.50977 L 597.64844 253.51562 L 597.65039 254.11719 L 596.58398 254.125 L 596.58984 255.10938 L 595.95898 255.11133 L 595.96094 255.74219 L 595.37305 255.74609 L 595.37695 256.34961 L 594.54102 256.35352 L 594.54883 257.60156 L 593.61719 257.60742 L 593.62695 259.37891 L 592.55664 259.38477 L 592.57422 262.70117 L 591.30664 262.70703 L 591.30859 262.99023 L 249.07031 262.99023 L 249.07617 261.91602 L 247.85938 261.9082 L 247.87695 258.5918 L 246.84961 258.58594 L 246.85938 256.81445 L 245.9668 256.80859 L 245.97461 255.56055 L 245.17383 255.55664 L 245.17578 254.95312 L 244.61133 254.94922 L 244.61523 254.31836 L 244.00977 254.31641 L 244.01562 253.33203 L 242.99219 253.32617 L 242.99414 252.72266 L 242.04883 252.7168 L 242.05078 252.17773 L 241.49805 252.17578 L 241.50195 251.58398 L 240.01953 251.57617 L 240.02148 251.02539 L 238.07617 251.01367 L 238.08008 250.22656 L 236.34961 250.21875 L 236.35156 249.75391 L 233.16016 249.73633 L 233.09375 262.44727 L 202.00781 262.44727 L 201.93945 249.73828 L 198.7168 249.75586 L 198.71875 250.2207 L 196.9707 250.23047 L 196.97461 251.01758 L 195.01172 251.02734 L 195.01367 251.57812 L 193.51758 251.58594 L 193.51953 252.17773 L 192.96289 252.18164 L 192.96484 252.7207 L 192.00977 252.72461 L 192.01367 253.32812 L 190.97852 253.33398 L 190.98633 254.31836 L 190.375 254.32227 L 190.37695 254.95312 L 189.80664 254.95508 L 189.81055 255.55859 L 189.00195 255.56445 L 189.00977 256.8125 L 188.10742 256.81641 L 188.11719 258.58789 L 187.08008 258.59375 L 187.09766 261.91016 L 185.86914 261.91797 L 185.87305 262.6582 L 15.697266 262.6582 L 15.697266 220.23828 L 15.103516 220.23828 L 15.103516 262.6582 L 14.919922 262.6582 L 14.919922 263.13867 L 3.7148438 263.13867 L 3.7148438 480.66211 L 15.453125 480.66211 L 15.453125 480.81055 L 637.71484 480.81055 L 637.71484 468.0332 L 637.71484 262.4707 L 636.59375 262.4707 L 636.59375 219.82031 L 637.48047 219.82031 L 637.48047 11.878906 L 636.22266 11.878906 L 636.22266 2.4648438 L 16.074219 2.4648438 L 16.074219 1.890625 L 3.8867188 1.890625 z M 16.074219 15.244141 L 213.89844 15.244141 L 213.89844 212.07617 L 201.08008 212.07617 L 201.08008 217.22656 L 200.66016 217.22656 L 200.66016 216.5957 L 186.38281 216.5957 L 186.38281 212.01758 L 16.074219 212.01758 L 16.074219 15.244141 z M 539.51367 15.244141 L 624.55469 15.244141 L 624.55469 87.412109 L 539.81445 87.412109 L 539.81445 85.806641 L 553.73242 85.732422 L 553.71484 82.507812 L 553.25 82.509766 L 553.24219 80.763672 L 552.45508 80.767578 L 552.44336 78.802734 L 551.89258 78.806641 L 551.88477 77.310547 L 551.29297 77.3125 L 551.29102 76.755859 L 550.75195 76.757812 L 550.74609 75.802734 L 550.14258 75.804688 L 550.13672 74.771484 L 549.15234 74.777344 L 549.15039 74.167969 L 548.51953 74.169922 L 548.51562 73.599609 L 547.91211 73.603516 L 547.9082 72.794922 L 546.66016 72.800781 L 546.6543 71.900391 L 544.88281 71.910156 L 544.87695 70.873047 L 541.56055 70.890625 L 541.55273 69.662109 L 539.58398 69.671875 L 539.58594 69.980469 L 539.51367 69.980469 L 539.51367 15.244141 z M 541.31055 71.076172 L 541.31641 72.001953 L 544.38281 71.986328 L 544.38867 73.181641 L 546.17383 73.171875 L 546.17773 74.099609 L 547.55664 74.09375 L 547.55859 74.609375 L 548.15039 74.607422 L 548.1543 75.03125 L 548.50781 75.029297 L 548.50781 75.320312 L 548.91602 75.318359 L 548.92188 76.140625 L 549.78711 76.136719 L 549.79102 76.958984 L 550.31641 76.957031 L 550.31836 77.5 L 550.96289 77.498047 L 550.9707 79.076172 L 551.57422 79.072266 L 551.58789 81.578125 L 552.31055 81.576172 L 552.31445 82.513672 L 539.67188 82.582031 L 539.61133 71.087891 L 541.31055 71.076172 z M 448.63086 71.419922 C 448.65426 71.425829 448.67747 71.432263 448.70117 71.4375 C 448.70417 71.438124 448.70794 71.43885 448.71094 71.439453 C 448.71194 71.432851 448.71384 71.426473 448.71484 71.419922 L 448.63086 71.419922 z M 450.62305 71.419922 C 450.62604 71.421921 450.62982 71.423783 450.63281 71.425781 C 450.63481 71.423982 450.63667 71.421924 450.63867 71.419922 L 450.62305 71.419922 z M 452.5625 71.419922 C 452.5289 71.555271 452.49349 71.690341 452.46094 71.826172 C 452.41904 71.998886 452.38364 72.174039 452.35547 72.349609 L 460.29883 72.349609 C 460.25502 72.112852 460.23122 71.87185 460.23242 71.632812 C 460.23142 71.56202 460.23197 71.490762 460.23047 71.419922 L 452.5625 71.419922 z M 460.70312 71.419922 C 460.70321 71.488937 460.70283 71.557908 460.70312 71.626953 C 460.70112 71.869427 460.7291 72.111976 460.7793 72.349609 L 462.02344 72.349609 C 462.12576 72.038101 462.23639 71.728585 462.34766 71.419922 L 460.70312 71.419922 z M 462.83594 71.419922 C 462.72315 71.727606 462.61605 72.038335 462.51367 72.349609 L 463.23438 72.349609 C 463.22538 72.039915 463.22456 71.729897 463.22656 71.419922 L 462.83594 71.419922 z M 463.70703 72.076172 C 463.70903 72.167265 463.70654 72.258446 463.71094 72.349609 L 463.80078 72.349609 C 463.77878 72.255008 463.74783 72.165016 463.70703 72.076172 z M 448.53906 72.078125 C 448.53606 72.080227 448.53229 72.08189 448.5293 72.083984 C 448.53229 72.086092 448.53411 72.087744 448.53711 72.089844 C 448.53911 72.087351 448.54097 72.084524 448.54297 72.082031 C 448.54197 72.08083 448.54006 72.079326 448.53906 72.078125 z M 451.74414 72.261719 C 451.74614 72.277283 451.748 72.293138 451.75 72.308594 C 451.751 72.300292 451.74886 72.295713 451.75586 72.271484 C 451.75635 72.268184 451.75522 72.265017 451.75781 72.261719 C 451.75382 72.263617 451.74884 72.26052 451.74414 72.261719 z M 450.54883 72.275391 C 450.52363 72.300312 450.49787 72.324723 450.47266 72.349609 L 450.51953 72.349609 C 450.52853 72.324717 450.53953 72.300317 450.54883 72.275391 z M 447.61133 72.3125 C 447.60534 72.327935 447.60031 72.339312 447.5957 72.349609 L 447.68359 72.349609 C 447.6654 72.336287 447.64535 72.324655 447.62305 72.316406 C 447.61905 72.314704 447.61503 72.313803 447.61133 72.3125 z M 449.0625 72.328125 C 449.0605 72.335225 449.0606 72.342567 449.05859 72.349609 L 449.0625 72.349609 C 449.06254 72.346909 449.06242 72.3445 449.0625 72.341797 C 449.06265 72.337195 449.06236 72.332697 449.0625 72.328125 z M 426.66406 80.927734 L 431.23438 80.927734 L 431.42383 81.117188 L 431.57031 80.927734 L 456.05273 80.927734 L 456.05273 81.158203 L 451.91797 85.285156 L 452.7168 85.902344 L 456.05273 82.570312 L 456.05273 87.369141 L 426.66406 87.369141 L 426.66406 80.927734 z M 457.06641 80.927734 L 487.81836 80.927734 L 487.81836 87.369141 L 457.06641 87.369141 L 457.06641 82.615234 L 460.44141 85.996094 L 461.05859 85.199219 L 457.06641 81.199219 L 457.06641 80.927734 z M 426.66406 88.298828 L 456.05273 88.298828 L 456.05273 94.550781 L 426.66406 94.550781 L 426.66406 88.298828 z M 457.06641 88.298828 L 487.81836 88.298828 L 487.81836 94.550781 L 457.06641 94.550781 L 457.06641 88.298828 z M 426.66406 95.480469 L 456.05273 95.480469 L 456.05273 102 L 426.66406 102 L 426.66406 95.480469 z M 457.06641 95.480469 L 487.81836 95.480469 L 487.81836 102 L 457.06641 102 L 457.06641 95.480469 z M 539.61523 100.76562 L 552.375 100.83203 L 552.37109 101.77148 L 551.64062 101.76758 L 551.62891 104.27344 L 551.01953 104.27148 L 551.01172 105.84766 L 550.36133 105.8457 L 550.35938 106.38867 L 549.82812 106.38672 L 549.82422 107.20898 L 548.95117 107.20508 L 548.94531 108.02734 L 548.5332 108.02539 L 548.5332 108.31641 L 548.17578 108.31445 L 548.17383 108.73828 L 547.57617 108.73633 L 547.57422 109.25195 L 546.18359 109.24609 L 546.17773 110.17383 L 544.37695 110.16602 L 544.37109 111.35938 L 541.27539 111.34375 L 541.27148 112.27148 L 539.55469 112.25977 L 539.61523 100.76562 z M 426.66406 102.92773 L 456.05273 102.92773 L 456.05273 109 L 426.66406 109 L 426.66406 102.92773 z M 457.06641 102.92773 L 487.81836 102.92773 L 487.81836 109 L 457.06641 109 L 457.06641 102.92773 z M 426.66406 109.92773 L 456.05273 109.92773 L 456.05273 116.55078 L 426.66406 116.55078 L 426.66406 109.92773 z M 457.06641 109.92773 L 487.81836 109.92773 L 487.81836 116.55078 L 457.06641 116.55078 L 457.06641 109.92773 z M 426.66406 117.48047 L 456.05273 117.48047 L 456.05273 124 L 426.66406 124 L 426.66406 117.48047 z M 457.06641 117.48047 L 487.81836 117.48047 L 487.81836 124 L 457.06641 124 L 457.06641 117.48047 z M 426.66406 124.92773 L 456.05273 124.92773 L 456.05273 131 L 426.66406 131 L 426.66406 124.92773 z M 457.06641 124.92773 L 487.81836 124.92773 L 487.81836 131 L 457.06641 131 L 457.06641 124.92773 z M 426.66406 131.92773 L 456.05273 131.92773 L 456.05273 138.51758 L 426.66406 138.51758 L 426.66406 131.92773 z M 457.06641 131.92773 L 487.81836 131.92773 L 487.81836 138.51758 L 457.06641 138.51758 L 457.06641 131.92773 z M 426.66406 139.44531 L 456.05273 139.44531 L 456.05273 145.47461 L 426.66406 145.47461 L 426.66406 139.44531 z M 457.06641 139.44531 L 487.81836 139.44531 L 487.81836 145.47461 L 457.06641 145.47461 L 457.06641 139.44531 z M 426.66406 146.4043 L 456.05273 146.4043 L 456.05273 153 L 426.66406 153 L 426.66406 146.4043 z M 457.06641 146.4043 L 487.81836 146.4043 L 487.81836 153 L 457.06641 153 L 457.06641 146.4043 z M 426.66406 153.92773 L 456.05273 153.92773 L 456.05273 161 L 426.66406 161 L 426.66406 153.92773 z M 457.06641 153.92773 L 487.81836 153.92773 L 487.81836 161 L 457.06641 161 L 457.06641 153.92773 z M 426.66406 161.92773 L 456.05273 161.92773 L 456.05273 168 L 426.66406 168 L 426.66406 161.92773 z M 457.06641 161.92773 L 487.81836 161.92773 L 487.81836 168 L 457.06641 168 L 457.06641 161.92773 z M 426.66406 168.92773 L 456.05273 168.92773 L 456.05273 174.73633 L 426.66406 174.73633 L 426.66406 168.92773 z M 457.06641 168.92773 L 487.81836 168.92773 L 487.81836 174.73633 L 457.06641 174.73633 L 457.06641 168.92773 z M 426.66406 175.66406 L 456.05273 175.66406 L 456.05273 182 L 426.66406 182 L 426.66406 175.66406 z M 457.06641 175.66406 L 487.81836 175.66406 L 487.81836 182 L 457.06641 182 L 457.06641 175.66406 z M 426.66406 182.92773 L 456.05273 182.92773 L 456.05273 189.52734 L 426.66406 189.52734 L 426.66406 182.92773 z M 457.06641 182.92773 L 487.81836 182.92773 L 487.81836 189.52734 L 457.06641 189.52734 L 457.06641 182.92773 z M 426.66406 190.45508 L 456.05273 190.45508 L 456.05273 196.42188 L 426.66406 196.42188 L 426.66406 190.45508 z M 457.06641 190.45508 L 487.81836 190.45508 L 487.81836 196.42188 L 457.06641 196.42188 L 457.06641 190.45508 z M 426.66406 197.35156 L 456.05273 197.35156 L 456.05273 203.78906 L 426.66406 203.78906 L 426.66406 197.35156 z M 457.06641 197.35156 L 487.81836 197.35156 L 487.81836 203.78906 L 457.06641 203.78906 L 457.06641 197.35156 z M 426.66406 204.71875 L 456.05273 204.71875 L 456.05273 211.43164 L 426.66406 211.43164 L 426.66406 204.71875 z M 457.06641 204.71875 L 487.81836 204.71875 L 487.81836 211.43164 L 457.06641 211.43164 L 457.06641 204.71875 z M 186.97266 218.41602 L 198.35742 218.41602 L 198.35742 231.06055 L 197.42773 231.06055 L 197.42773 230.33789 L 194.94531 230.33789 L 194.94531 229.73438 L 193.38281 229.73438 L 193.38281 229.08984 L 192.84375 229.08984 L 192.84375 228.56445 L 192.0293 228.56445 L 192.0293 227.69922 L 191.21484 227.69922 L 191.21484 227.29102 L 190.92578 227.29102 L 190.92578 226.9375 L 190.50586 226.9375 L 190.50586 226.3457 L 189.99414 226.3457 L 189.99414 224.9668 L 189.07422 224.9668 L 189.07422 223.18164 L 187.89062 223.18164 L 187.89062 220.11523 L 186.97266 220.11523 L 186.97266 218.41602 z M 234.9668 219.72852 L 247.55078 219.72852 L 247.55078 220.66016 L 246.88867 220.66016 L 246.88867 223.14062 L 246.28516 223.14062 L 246.28516 224.70312 L 245.64062 224.70312 L 245.64062 225.24219 L 245.11523 225.24219 L 245.11523 226.05664 L 244.25 226.05664 L 244.25 226.87109 L 243.8418 226.87109 L 243.8418 227.16016 L 243.48828 227.16016 L 243.48828 227.58008 L 242.89648 227.58008 L 242.89648 228.0918 L 241.51758 228.0918 L 241.51758 229.01172 L 239.73242 229.01172 L 239.73242 230.19727 L 236.66602 230.19727 L 236.66602 231.11328 L 234.9668 231.11328 L 234.9668 219.72852 z M 626.02539 219.82031 L 636 219.82031 L 636 262.4707 L 626.02539 262.4707 L 626.02539 219.82031 z M 4.7539062 220.05078 L 4.7539062 262.99023 L 5.3496094 262.99023 L 5.3496094 220.05078 L 4.7539062 220.05078 z M 236.3457 251.1543 L 237.27539 251.1582 L 237.27344 251.88086 L 239.75586 251.89453 L 239.75195 252.49805 L 241.31445 252.50586 L 241.3125 253.15039 L 241.85156 253.15234 L 241.84961 253.67773 L 242.66406 253.68359 L 242.6582 254.54883 L 243.47266 254.55273 L 243.4707 254.96094 L 243.75977 254.96289 L 243.75781 255.31641 L 244.17773 255.31836 L 244.17578 255.91016 L 244.6875 255.91211 L 244.67969 257.29102 L 245.59961 257.29492 L 245.58984 259.08008 L 246.77344 259.08594 L 246.75781 262.15234 L 247.67578 262.1582 L 247.66406 263.85742 L 236.28125 263.79883 L 236.3457 251.1543 z M 198.7207 251.15625 L 198.78906 263.80078 L 187.29492 263.85938 L 187.2832 262.16016 L 188.20898 262.15625 L 188.19336 259.08984 L 189.38867 259.08203 L 189.37891 257.29688 L 190.30859 257.29297 L 190.30078 255.91406 L 190.81836 255.91211 L 190.81445 255.32031 L 191.23828 255.31836 L 191.23633 254.96484 L 191.52734 254.96289 L 191.52539 254.55469 L 192.34766 254.55078 L 192.34375 253.68555 L 193.16602 253.67969 L 193.16406 253.1543 L 193.70898 253.15234 L 193.70508 252.50781 L 195.2832 252.5 L 195.2793 251.89648 L 197.78516 251.88281 L 197.7832 251.16016 L 198.7207 251.15625 z M 604.57617 251.94531 L 604.64453 264.58984 L 592.77734 264.65039 L 592.76367 262.94922 L 593.7207 262.94531 L 593.70508 259.87891 L 594.9375 259.87305 L 594.92969 258.08789 L 595.88867 258.08203 L 595.88086 256.70312 L 596.41406 256.70117 L 596.41211 256.10938 L 596.84961 256.10742 L 596.84766 255.75391 L 597.14844 255.75391 L 597.14648 255.3457 L 597.99609 255.33984 L 597.99023 254.47461 L 598.83984 254.4707 L 598.83789 253.94531 L 599.40039 253.94336 L 599.39648 253.29883 L 601.02539 253.29102 L 601.02148 252.6875 L 603.60938 252.67383 L 603.60742 251.95117 L 604.57617 251.94531 z M 233.87109 264.97266 L 233.9707 264.97266 L 233.9668 265.60352 L 248.42969 265.68164 L 248.42969 271.01367 L 419.03711 271.01367 L 419.03711 468.0332 L 222.31445 468.0332 L 222.31445 271.27344 L 233.87109 271.27344 L 233.87109 264.97266 z M 200.88086 265.60742 L 200.88086 271.27344 L 214.95898 271.27344 L 214.95898 468.0332 L 16.195312 468.0332 L 16.195312 271.0625 L 186.80273 271.0625 L 186.80273 265.68164 L 200.88086 265.60742 z M 607.05664 265.76367 L 607.10547 265.76367 L 607.10547 271.31055 L 624.78711 271.31055 L 624.78711 468.0332 L 426.39062 468.0332 L 426.39062 271.01367 L 592.09961 271.01367 L 592.09961 266.47461 L 607.05859 266.39453 L 607.05664 265.76367 z " />
  <path
     id="rect159"
     style="fill:#ffffff;stroke-width:1.42191;stroke-dasharray:none"
     d="M 431.66797 71.419922 L 431.66797 72.349609 L 438.86523 72.349609 L 438.86523 71.419922 L 431.66797 71.419922 z M 459.66602 71.419922 L 459.66602 72.349609 L 466.86328 72.349609 L 466.86328 71.419922 L 459.66602 71.419922 z M 473.57227 71.419922 L 473.57227 72.349609 L 480.76953 72.349609 L 480.76953 71.419922 L 473.57227 71.419922 z M 445.53516 71.507812 L 445.53516 72.4375 L 452.73242 72.4375 L 452.73242 71.507812 L 445.53516 71.507812 z M 487.81836 75.189453 L 487.81836 79.050781 L 488.83203 79.050781 L 488.83203 75.189453 L 487.81836 75.189453 z " />
</svg>
