<?xml version="1.0" encoding="UTF-8" standalone="no"?>
<svg
   version="1.1"
   width="640"
   height="482"
   id="svg101"
   sodipodi:docname="CSD_FloorFinal.svg"
   inkscape:version="1.3.2 (091e20e, 2023-11-25, custom)"
   xmlns:inkscape="http://www.inkscape.org/namespaces/inkscape"
   xmlns:sodipodi="http://sodipodi.sourceforge.net/DTD/sodipodi-0.dtd"
   xmlns:xlink="http://www.w3.org/1999/xlink"
   xmlns="http://www.w3.org/2000/svg"
   xmlns:svg="http://www.w3.org/2000/svg">
  <defs
     id="defs101">
    <inkscape:path-effect
       effect="fillet_chamfer"
       id="path-effect19"
       is_visible="true"
       lpeversion="1"
       nodesatellites_param="F,0,0,1,0,0.22288446,0,1 @ F,0,0,1,0,0,0,1 @ F,0,0,1,0,0,0,1 @ F,0,0,1,0,13.579705,0,1"
       radius="0"
       unit="px"
       method="auto"
       mode="F"
       chamfer_steps="1"
       flexible="false"
       use_knot_distance="true"
       apply_no_radius="true"
       apply_with_radius="true"
       only_selected="false"
       hide_knots="false" />
    <clipPath
       clipPathUnits="userSpaceOnUse"
       id="clipPath99">
      <path
         id="path100"
         style="fill:#ff0000;fill-opacity:1;fill-rule:nonzero;stroke:none"
         d="M 0.64257812,0.3828125 V 482.38281 H 640.64258 V 0.3828125 Z M 461.11523,69.796875 c 0.14444,-0.01253 0.27968,0.130613 0.22266,0.400391 -0.0346,0.163503 -0.0841,0.3239 -0.13086,0.484375 -0.0405,0.124908 -0.0581,0.254761 -0.084,0.382812 0.0397,0.02311 0.0806,0.05533 0.12109,0.09766 0.0403,0.0421 0.0804,0.08343 0.12109,0.125 0.003,-0.01096 0.005,-0.02225 0.008,-0.0332 0.0659,-0.245811 0.12677,-0.496841 0.25195,-0.720703 0.0213,-0.03609 0.0414,-0.0725 0.0645,-0.107422 0.0148,-0.02229 0.0318,-0.04192 0.0488,-0.0625 0.0736,-0.08892 0.15615,-0.174815 0.25977,-0.228515 0.0352,-0.01319 0.0697,-0.02767 0.10547,-0.03906 0.0119,-0.0038 0.0248,-0.004 0.0371,-0.0059 0.0698,-0.01091 0.14024,-0.02022 0.21094,-0.01172 0.1251,0.0089 0.25151,0.01841 0.37305,0.05078 0.0285,0.0097 0.0579,0.01809 0.0859,0.0293 0.0973,0.03905 0.18251,0.108878 0.25781,0.179688 0.0189,0.02236 0.0391,0.04491 0.0566,0.06836 0.0774,0.103577 0.11631,0.228901 0.13281,0.355469 0.002,0.03196 0.005,0.06367 0.006,0.0957 0.003,0.122897 -0.0153,0.245682 -0.0332,0.367187 0.27847,0.0098 0.27373,-0.04738 0.27539,0.117188 -0.0215,0.138208 -0.0462,0.276763 -0.0605,0.416015 -0.003,0.03194 -0.004,0.06371 -0.006,0.0957 0.0726,-0.0043 0.072,0.01439 0.0586,0.130859 v 0.002 c 0.002,0.0014 0.002,3.12e-4 0.004,0.002 0.10619,0.05511 0.20343,0.124112 0.29493,0.201172 0.10747,0.08445 0.22478,0.191903 0.23828,0.339844 0.004,0.04734 0.011,0.104588 -0.0176,0.142578 -0.0543,0.07222 -0.14159,0.110476 -0.21289,0.166016 -0.0863,0.0062 -0.17377,0.0018 -0.25977,-0.0078 -0.11747,-0.01463 -0.23403,-0.03432 -0.33594,-0.09766 -0.0101,0.0845 -0.0265,0.167732 -0.0547,0.248047 -0.015,0.03051 -0.0283,0.0621 -0.0449,0.0918 -0.006,0.01149 -0.0154,0.02093 -0.0234,0.03125 -0.063,0.07966 -0.14319,0.14395 -0.24805,0.15625 -0.0907,0.0087 -0.18244,0.0054 -0.27344,0.0039 -0.0996,-8e-4 -0.19943,-0.0044 -0.29883,-0.0098 -0.13654,-0.0073 -0.27313,-0.01305 -0.40624,-0.04687 -0.14478,-0.03927 -0.28449,-0.0975 -0.4004,-0.195312 -0.0232,-0.02245 -0.0467,-0.04447 -0.0684,-0.06836 -0.0142,-0.01559 -0.0268,-0.03192 -0.0391,-0.04883 -0.066,-0.0011 -0.13134,-0.0024 -0.19726,-0.0059 -0.12696,-0.0069 -0.25987,-0.01258 -0.37696,-0.06641 -0.0219,-0.01331 -0.0454,-0.02443 -0.0664,-0.03906 -0.0779,-0.05427 -0.13012,-0.140782 -0.16602,-0.226562 -0.007,-0.02447 -0.0155,-0.04745 -0.0215,-0.07227 -0.0204,-0.08971 -0.0113,-0.18246 -0.0117,-0.273437 10e-4,-0.120508 0.004,-0.241047 0.0117,-0.361329 0.0117,-0.187731 0.0297,-0.376331 0.0566,-0.5625 0.0372,-0.249301 0.084,-0.495566 0.16015,-0.736328 0.0388,-0.141707 0.0825,-0.284919 0.10743,-0.429687 0.0364,-0.21136 0.15524,-0.314472 0.26757,-0.324219 z m 2.38282,2.189453 c -0.006,0.05541 -0.0154,0.135641 -0.0195,0.244141 0.007,0.01726 0.0138,0.03052 0.0195,0.04297 0.0147,-0.0296 0.0275,-0.07275 0.0547,-0.144532 -0.007,-0.02988 -0.007,-0.06176 -0.0195,-0.08984 -0.011,-0.02492 -0.0244,-0.04122 -0.0352,-0.05273 z m -1.20508,-1.419922 c -0.0258,6.37e-4 -0.0499,0.0075 -0.0762,0.01172 -0.0112,0.0018 -0.0229,0.0013 -0.0332,0.0059 -0.008,0.0035 0.0164,-0.0013 0.0254,-0.002 -0.0675,0.05188 -0.11885,0.121653 -0.16015,0.195313 -0.0777,0.144988 -0.12715,0.302884 -0.17188,0.460937 0.0268,-0.02215 0.0542,-0.04332 0.082,-0.06445 0.0602,-0.04679 0.12486,-0.09126 0.19336,-0.125 0.0131,-0.0065 0.0246,-0.01538 0.0391,-0.01758 0.0527,-0.0082 0.10695,-0.0074 0.16015,-0.01172 0.14755,0.06947 0.1382,0.03728 0.2168,0.216797 0.011,0.02396 0.01,0.05204 0.008,0.07813 -0.007,0.09477 -0.0421,0.184528 -0.0723,0.273438 -0.0259,0.09091 -0.0685,0.175025 -0.10938,0.259765 -0.0263,0.0544 -0.0561,0.09988 -0.0879,0.134766 0.0824,-0.0062 0.16389,-0.01296 0.24609,-0.02148 0.0341,-0.06541 0.0634,-0.132306 0.0781,-0.205079 0.0328,-0.184891 0.0814,-0.367626 0.11328,-0.552734 0.0138,-0.12972 0.0457,-0.263814 0.0254,-0.394531 -0.007,-0.03954 -0.0251,-0.117502 -0.0644,-0.138672 -0.0337,-0.02355 -0.0828,-0.06851 -0.125,-0.07031 -0.0854,-0.0199 -0.17257,-0.02575 -0.25977,-0.03125 -0.009,-0.0013 -0.0188,-0.0022 -0.0273,-0.002 z m 1.19531,0.826172 c -0.003,0.006 -0.004,0.01139 -0.006,0.01758 0.006,6.2e-4 0.008,-0.02328 0.006,-0.01758 z m -2.45508,0.253906 c -0.006,0.07687 -0.0151,0.153417 -0.0195,0.230469 -0.005,0.112876 -0.008,0.226864 -0.01,0.339844 -8e-5,0.01754 8e-5,0.03519 0,0.05273 0,0.03469 6.6e-4,0.07495 0.008,0.111328 0.0126,-1.9e-4 0.0246,0.002 0.0371,0.0039 -0.003,-0.0077 -0.005,-0.01583 -0.008,-0.02344 0.0188,-0.02162 0.0357,-0.04356 0.0527,-0.06641 3.8e-4,-0.0011 0.002,-0.0029 0.002,-0.0039 0.0149,-0.04054 0.0254,-0.05011 0.0605,-0.09766 0.006,-0.0052 0.0118,-0.01029 0.0176,-0.01563 0.0101,-0.01609 0.0195,-0.03256 0.0293,-0.04883 0.004,-0.03902 0.009,-0.07816 0.0137,-0.117187 0.006,-0.04699 0.022,-0.09193 0.0293,-0.138672 -0.0195,-0.0221 -0.0391,-0.0443 -0.0586,-0.06641 -0.0497,-0.055 -0.10178,-0.108291 -0.1543,-0.160157 z m -0.0215,0.734375 c 10e-4,0.0051 -0.002,0.01078 0,0.01563 0.002,0.0066 0.003,-0.0028 0.004,-0.002 0.006,0.0051 0.0102,0.0089 0.0117,0.0098 -0.002,-0.003 -0.008,-0.0127 -0.0137,-0.01758 -0.007,-0.0018 -0.0136,-0.0057 -0.002,-0.0059 z m 1.71875,0.1875 c -0.0285,0.03121 -0.0596,0.06177 -0.0918,0.08984 -0.0289,0.02241 -0.0558,0.04572 -0.0859,0.06641 -0.0227,0.01562 -0.0472,0.03104 -0.0723,0.04492 0.0308,5.14e-4 0.061,0.0014 0.0918,0.002 0.0435,2.87e-4 0.0874,-1.47e-4 0.13085,0 0.0157,-0.06667 0.0218,-0.135009 0.0274,-0.203125 z m 0.0469,0.191407 c -0.005,0.0013 -0.0146,0.007 -0.0273,0.01367 0.0234,0.0024 0.0268,0.0083 0.0234,-0.0039 0.01,-0.0086 0.009,-0.0109 0.004,-0.0098 z" />
    </clipPath>
    <clipPath
       clipPathUnits="userSpaceOnUse"
       id="clipPath102">
      <path
         id="path103"
         style="fill:#ff0000;fill-opacity:1;fill-rule:nonzero;stroke:none"
         d="m 425.78906,71.419922 v 0.929687 h 34.37891 c 1.2e-4,-0.105598 -6.1e-4,-0.210768 0,-0.316406 -1.1e-4,-0.02798 6e-5,-0.05599 0,-0.08398 -0.003,-0.0125 -0.008,-0.02452 -0.01,-0.03711 -0.007,-0.03778 0.005,-0.05966 0.01,-0.08789 3e-5,-0.04298 -2.1e-4,-0.08596 0,-0.128907 1.9e-4,-0.0919 4e-5,-0.183571 0,-0.27539 z m 37.70508,0 c -0.0181,0.112289 -0.0372,0.224869 -0.0488,0.33789 -0.003,0.03194 -0.004,0.06371 -0.006,0.0957 0.0726,-0.0043 0.072,0.01439 0.0586,0.130859 v 0.002 c 0.002,0.0014 0.002,3.12e-4 0.004,0.002 0.10619,0.05511 0.20343,0.124112 0.29493,0.201172 0.058,0.04556 0.1182,0.09846 0.16406,0.160156 h 24.83008 v -0.929687 z m 0.004,0.566406 c -0.006,0.05541 -0.0154,0.135641 -0.0195,0.244141 0.007,0.01726 0.0138,0.03052 0.0195,0.04297 0.0147,-0.0296 0.0275,-0.07275 0.0547,-0.144532 -0.007,-0.02988 -0.007,-0.06176 -0.0195,-0.08984 -0.011,-0.02492 -0.0244,-0.04122 -0.0352,-0.05273 z m -1.08985,-0.167969 c -0.005,0.0097 -0.009,0.01956 -0.0137,0.0293 -0.0263,0.0544 -0.0561,0.09988 -0.0879,0.134766 0.0615,-0.0046 0.12248,-0.0099 0.18359,-0.01563 -0.004,-0.0074 -0.01,-0.01408 -0.0137,-0.02148 -0.0235,-0.0423 -0.0462,-0.08439 -0.0684,-0.126953 z" />
    </clipPath>
  </defs>
  <sodipodi:namedview
     id="namedview101"
     pagecolor="#ffffff"
     bordercolor="#000000"
     borderopacity="0.25"
     inkscape:showpageshadow="2"
     inkscape:pageopacity="0.0"
     inkscape:pagecheckerboard="0"
     inkscape:deskcolor="#d1d1d1"
     inkscape:zoom="0.89509365"
     inkscape:cx="-91.610526"
     inkscape:cy="359.18029"
     inkscape:window-width="1920"
     inkscape:window-height="1046"
     inkscape:window-x="-11"
     inkscape:window-y="-11"
     inkscape:window-maximized="1"
     inkscape:current-layer="svg101" />
  <path
     id="path7"
     transform="translate(593,266)"
     d="M -593,-266 V 216 H 47 v -482 z m 3,1 H 44 c -206.93412,0 -413.86823,0 -620.80235,0 H -590 l 0.59971,218.72217 12.47451,-0.03467 v -0.08008 h 169.49609 v 0.757812 h 1.2168 v 3.316407 h 1.02734 v 1.771484 h 0.89258 v 1.248047 h 0.80078 v 0.603516 h 0.56446 v 0.630859 h 0.60546 v 0.984375 h 1.02344 v 0.603516 h 0.94531 v 0.539062 h 0.55274 v 0.591797 h 1.48242 v 0.550781 h 1.94531 v 0.78711 h 1.73047 v 0.464843 h 3.19336 V -46.23633 h 31.78516 v -1.833984 h 0.23828 c -0.0873,5.392228 2.27696,9.89315 5.3164,10.121093 v 0.01172 l 0.0137,-0.01172 c 0.0111,0.0027 0.0221,0.0053 0.0332,0.0078 l -0.0137,-0.02344 8.66015,-7.259765 h 171.72461 v 0.03516 h 7.35547 v -8.449219 h 62.15039 v -0.0918 h 0.0176 v -133.218755 -3.86133 -3.53515 -0.23438 h -0.041 -21.92774 -2.93164 c 0.008,0.0246 0.006,0.0583 0.01,0.0879 0.005,-3e-4 0.009,-0.002 0.0137,-0.002 0.12358,2.6e-4 0.24125,0.11549 0.21875,0.3457 -0.0148,0.15131 -0.0637,0.3018 -0.11719,0.44336 -0.008,0.0184 -0.0158,0.0364 -0.0234,0.0547 h 2.83008 20.95508 v 2.83984 3.86133 V -186 h -4.21875 l 3.48437,-4.13281 -0.74023,-0.67774 -4.05273,4.81055 h -50.56836 l -4.07227,-4.07812 -0.61523,0.79687 3.27343,3.28125 h -3.64453 v -7.65039 h 19.22071 6.84765 7.21485 c 0.0875,-0.30994 0.18334,-0.61782 0.26367,-0.92969 h -7.47852 -7.0039 -19.06446 v -56.11328 h -7.35547 V -54.669922 H -345.4489 v 4.53711 l -1.42969,1.318359 -12.78515,-0.04102 v -6.205078 h -12.08203 V -250.75586 h 312.166012 v 54.60156 h 3.740234 v 13.08789 l -2.173828,2.16797 h -1.263672 v 13.65821 h 3.996094 v 10.39062 l -2.035156,1.9707 h -2.314453 v 63.039066 h 4.86914 v 0.03906 h 86.316407 v 45.621093 h 0.876953 v 42.6503911 h -0.644532 v 0.074219 H 14.966797 l -0.06445,-12.0156251 -3.330078,0.01758 0.002,0.464844 -1.8027346,0.0078 0.00391,0.78711 -2.0292968,0.0098 0.00391,0.550782 -1.5449219,0.0078 0.00195,0.591797 -0.5761718,0.0039 0.00195,0.539063 -0.984375,0.0059 0.00195,0.601563 -1.0664062,0.0078 0.00586,0.984375 -0.6308594,0.002 0.00195,0.63086 -0.5878906,0.0039 0.00391,0.6035156 -0.8359375,0.00391 0.00781,1.2480469 -0.9316406,0.00586 0.009766,1.7714843 -1.0703125,0.00586 0.0175781,3.3164063 -1.2675781,0.00586 0.00195,0.2832032 H -343.92969 l 0.006,-1.0742188 -1.21679,-0.00781 0.0176,-3.3164062 -1.02734,-0.00586 0.01,-1.7714844 -0.89258,-0.00586 0.008,-1.2480469 -0.80078,-0.0039 0.002,-0.603516 -0.56445,-0.0039 0.004,-0.63086 -0.60546,-0.002 0.006,-0.984375 -1.02343,-0.0059 0.002,-0.603516 -0.94531,-0.0059 0.0117,-0.539063 -0.55274,-0.002 0.0117,-0.591797 -1.48242,-0.0078 0.002,-0.550781 -1.94531,-0.01172 0.0117,-0.78711 -1.73047,-0.0078 0.0117,-0.464844 -3.19141,-0.01758 -0.0664,12.7109377 h -31.08594 l -0.0703,-12.7089847 -3.22266,0.01758 0.006,0.464844 -1.74805,0.0098 0.004,0.787109 -1.96289,0.0098 0.002,0.550781 -1.49609,0.0078 0.002,0.591796 -0.55664,0.0039 0.002,0.539062 -0.95507,0.0039 0.004,0.603516 -1.03516,0.0059 0.008,0.984375 -0.61133,0.0039 0.002,0.630859 -0.57031,0.002 0.004,0.603516 -0.8086,0.0059 0.008,1.2480471 -0.90235,0.00391 0.01,1.7714844 -1.03711,0.00586 0.0176,3.3164062 -1.22852,0.00781 0.004,0.7402343 h -170.1956 v -42.420028 h -0.59375 v 42.4199221 h -0.1836 v 0.4804688 h -11.2207 z m 13.07422,14.24414 h 197.82422 v 195.695313 h -13.55078 v 5.65625 h -13.96485 v -4.578125 h -170.30859 z m 606.92578,0 h 1.554688 v 72.16797 H -53.185547 V -179 H 30 Z m -83.486328,54.01367 1.646484,0.82227 c -1.01588,-0.14528 -2.066094,-0.21433 -3.11914,-0.20508 v -0.0293 h 1.472656 z m -1.472656,0.63281 8.162109,4.03126 -8.162109,8.13476 z m -77.134766,1.5293 c 5.2e-4,0.002 1.5e-4,0.004 0.002,0.006 8.4e-4,-0.002 3.2e-4,-0.004 0.002,-0.006 z m -34.24219,9.50781 h 4.57032 l 0.18945,0.18946 0.14648,-0.18946 h 24.48242 v 0.23047 l -4.13476,4.12696 0.79883,0.61718 3.33593,-3.33007 v 4.79687 h -29.38867 z m 30.40235,0 h 30.75195 v 6.44141 h -30.75195 v -4.75391 l 3.375,3.38086 0.61718,-0.79687 -3.99218,-4 z m 81.623043,3.96485 c -0.01416,0.0695 -0.02783,0.13919 -0.04102,0.20898 h -0.607422 v -0.004 c 0.2178,-0.0621 0.434024,-0.13045 0.648437,-0.20508 z m -112.025393,3.40625 h 29.38867 v 6.25195 h -29.38867 z m 30.40235,0 h 30.75195 v 6.25195 h -30.75195 z m 82.748043,6.04883 h 84.740235 v 72.916012 h -85.091797 v -54.619142 l 9.560547,-10.18945 0.02344,0.0117 c -0.0019,-0.0104 -0.0039,-0.0208 -0.0059,-0.0312 l 0.01172,-0.0117 h -0.01172 c -0.207474,-2.59465 -4.138002,-4.718 -9.226563,-4.98438 z m -113.150393,1.13281 h 29.38867 V -164 h -29.38867 z m 30.40235,0 h 30.75195 V -164 h -30.75195 z m 82.748043,2.55859 6.277344,3.00977 -7.556641,7.3125 v -9.60156 h 1.279297 z m 7.205078,3.45508 0.0039,0.002 h -0.0039 z m -120.355471,1.43359 h 29.38867 V -157 h -29.38867 z m 30.40235,0 h 30.75195 V -157 h -30.75195 z m -30.40235,7 h 29.38867 v 6.62305 h -29.38867 z m 30.40235,0 h 30.75195 v 6.62305 h -30.75195 z m 82.068356,0.98243 c -0.01424,0.0702 -0.02791,0.14047 -0.04102,0.21093 h -0.558594 v -0.0254 c 0.201411,-0.0562 0.401353,-0.11807 0.59961,-0.18554 z m -112.470706,6.57031 h 29.38867 V -142 h -29.38867 z m 30.40235,0 h 30.75195 V -142 h -30.75195 z m -30.40235,7.44726 h 29.38867 V -135 h -29.38867 z m 30.40235,0 h 30.75195 V -135 h -30.75195 z m -30.40235,7 h 29.38867 v 6.58985 h -29.38867 z m 30.40235,0 h 30.75195 v 6.58985 h -30.75195 z m -30.40235,7.51758 h 29.38867 v 6.0293 h -29.38867 z m 30.40235,0 h 30.75195 v 6.0293 h -30.75195 z m -30.40235,6.95899 h 29.38867 V -113 h -29.38867 z m 30.40235,0 h 30.75195 V -113 h -30.75195 z m -30.40235,7.52343 h 29.38867 V -105 h -29.38867 z m 30.40235,0 h 30.75195 V -105 h -30.75195 z m -30.40235,8 h 29.38867 V -98 h -29.38867 z m 30.40235,0 h 30.75195 V -98 h -30.75195 z m -30.40235,7.000004 h 29.38867 v 5.808594 h -29.38867 z m 30.40235,0 h 30.75195 v 5.808594 h -30.75195 z m -30.40235,6.736328 h 29.38867 V -84 h -29.38867 z m 30.40235,0 h 30.75195 V -84 h -30.75195 z m -30.40235,7.263672 h 29.38867 v 6.59961 h -29.38867 z m 30.40235,0 h 30.75195 v 6.59961 h -30.75195 z m -30.40235,7.527344 h 29.38867 v 5.966797 h -29.38867 z m 30.40235,0 h 30.75195 v 5.966797 h -30.75195 z m -30.40235,6.896484 h 29.38867 v 6.4375 h -29.38867 z m 30.40235,0 h 30.75195 v 6.4375 h -30.75195 z m -30.40235,7.367188 h 29.38867 v 6.712891 h -29.38867 z m 30.40235,0 h 30.75195 v 6.712891 h -30.75195 z m -223.48047,13.212891 11.68945,0.03711 -7.84375,7.242188 z m -46.61328,0.484375 h 11.38476 v 12.644531 h -0.92969 v -0.722656 h -2.48242 v -0.603516 h -1.5625 v -0.644531 h -0.53906 v -0.525391 h -0.81445 v -0.865234 h -0.81446 v -0.408203 h -0.28906 V -39.0625 h -0.41992 v -0.591797 h -0.51172 v -1.378906 h -0.91992 v -1.785156 h -1.1836 v -3.066407 h -0.91796 z m 439.052731,1.404296 H 43 V -3.5292969 H 33.025391 Z M -588,-46 v 0.05078 h -0.24609 v 42.9394534 h 0.5957 V -4 H -579 v -42 z m 231.3457,31.154297 0.92969,0.0039 -0.002,0.722656 2.48242,0.01367 -0.004,0.603516 1.5625,0.0078 -0.002,0.644532 0.53906,0.002 -0.002,0.52539 0.81445,0.0059 -0.006,0.865234 0.81446,0.0039 -0.002,0.408204 0.28907,0.002 -0.002,0.353515 0.41992,0.002 -0.002,0.591797 0.51172,0.002 -0.008,1.3789066 0.91992,0.00391 -0.01,1.7851562 1.1836,0.00586 -0.0156,3.0664063 0.91797,0.00586 -0.0117,1.6992188 -11.38281,-0.058594 z m -37.625,0.002 0.0684,12.6445312 -11.49414,0.058594 -0.0117,-1.6992188 0.92578,-0.00391 -0.0156,-3.0664062 1.19531,-0.00781 -0.01,-1.7851562 0.92968,-0.00391 -0.008,-1.378907 0.51758,-0.002 -0.004,-0.591797 0.42383,-0.002 -0.002,-0.353515 0.29101,-0.002 -0.002,-0.408203 0.82227,-0.0039 -0.004,-0.865234 0.82227,-0.0059 -0.002,-0.525391 0.54492,-0.002 -0.004,-0.644532 1.57812,-0.0078 -0.004,-0.603516 2.50586,-0.01367 -0.002,-0.722656 z m 405.855472,0.789062 0.06836,12.6445318 -11.86718725,0.060547 -0.0136719,-1.7011718 0.95703124,-0.00391 -0.015625,-3.0664063 1.23242191,-0.00586 -0.00781,-1.7851563 0.9589844,-0.00586 -0.00781,-1.3789062 0.5332031,-0.00195 -0.00195,-0.5917969 0.4375,-0.00195 -0.00195,-0.3535163 h 0.3007813 l -0.00195,-0.408203 0.8496094,-0.0059 -0.00586,-0.865235 0.8496094,-0.0039 -0.00195,-0.525391 0.5625,-0.002 -0.00391,-0.644531 1.6289062,-0.0078 -0.00391,-0.603516 2.5878902,-0.01367 -0.002,-0.722656 z M -359.12891,-1.0273438 h 0.0996 l -0.004,0.63085942 14.46289,0.078125 V 5.0136719 H -173.963 V 202.0332 H -370.68555 V 5.2734375 h 11.55664 z m -32.99023,0.63476568 V 5.2734375 h 14.07812 V 202.0332 H -576.80469 V 5.0625 h 170.60742 v -5.38085938 z m 406.175781,0.15625 h 0.04883 V 4 H 13 l -0.898438,-3.59570312 1.957032,-0.009766 z M -0.09375,0.47070312 -0.90039062,4.5019531 V 0.47460938 Z M 31,5.3105469 h 0.787109 V 202.0332 H -165.42441 l 1.18497,-196.5534429 z"
     sodipodi:nodetypes="cccccccccccccccccccccccccccccccccccccccccccccccccccccccccccccccccscccccccccccccccccccccccccccccccccccccccccccccccccccccccccccccccccccccccccccccccccccccccccccccccccccccccccccccccccccccccccccccccccccccccccccccccccccccccccccccccccccccccccccccccccccccccccccccccccccccsccccsccccccccccccccccccccccccccccccccccccccccccccccccccccccccccccccscccssccccccccccccccccccccccccccccccccccccccccccccccccccccccccccccccccccccccccccccccccccccccccccccccccccccccccccccccccccccccccccccccccccccccccccccccccccccccccccccccccccccccccccccccccccccccccccccccccccccccccccccccccccccccccccccccccccccccccccccccccccccccccccccccccccccccccccccccccccccccccccccccccccccc" />
</svg>
