<?xml version="1.0" encoding="UTF-8" standalone="no"?>
<svg
   version="1.1"
   width="640"
   height="482"
   id="svg101"
   sodipodi:docname="CSD_Floor_Inkscape.svg"
   inkscape:version="1.3.2 (091e20e, 2023-11-25, custom)"
   xmlns:inkscape="http://www.inkscape.org/namespaces/inkscape"
   xmlns:sodipodi="http://sodipodi.sourceforge.net/DTD/sodipodi-0.dtd"
   xmlns="http://www.w3.org/2000/svg"
   xmlns:svg="http://www.w3.org/2000/svg">
  <defs
     id="defs101">
    <inkscape:path-effect
       effect="fillet_chamfer"
       id="path-effect19"
       is_visible="true"
       lpeversion="1"
       nodesatellites_param="F,0,0,1,0,0.22288446,0,1 @ F,0,0,1,0,0,0,1 @ F,0,0,1,0,0,0,1 @ F,0,0,1,0,13.579705,0,1"
       radius="0"
       unit="px"
       method="auto"
       mode="F"
       chamfer_steps="1"
       flexible="false"
       use_knot_distance="true"
       apply_no_radius="true"
       apply_with_radius="true"
       only_selected="false"
       hide_knots="false" />
    <clipPath
       clipPathUnits="userSpaceOnUse"
       id="clipPath99">
      <path
         id="path100"
         style="fill:#ff0000;fill-opacity:1;fill-rule:nonzero;stroke:none"
         d="M 0.64257812,0.3828125 V 482.38281 H 640.64258 V 0.3828125 Z M 461.11523,69.796875 c 0.14444,-0.01253 0.27968,0.130613 0.22266,0.400391 -0.0346,0.163503 -0.0841,0.3239 -0.13086,0.484375 -0.0405,0.124908 -0.0581,0.254761 -0.084,0.382812 0.0397,0.02311 0.0806,0.05533 0.12109,0.09766 0.0403,0.0421 0.0804,0.08343 0.12109,0.125 0.003,-0.01096 0.005,-0.02225 0.008,-0.0332 0.0659,-0.245811 0.12677,-0.496841 0.25195,-0.720703 0.0213,-0.03609 0.0414,-0.0725 0.0645,-0.107422 0.0148,-0.02229 0.0318,-0.04192 0.0488,-0.0625 0.0736,-0.08892 0.15615,-0.174815 0.25977,-0.228515 0.0352,-0.01319 0.0697,-0.02767 0.10547,-0.03906 0.0119,-0.0038 0.0248,-0.004 0.0371,-0.0059 0.0698,-0.01091 0.14024,-0.02022 0.21094,-0.01172 0.1251,0.0089 0.25151,0.01841 0.37305,0.05078 0.0285,0.0097 0.0579,0.01809 0.0859,0.0293 0.0973,0.03905 0.18251,0.108878 0.25781,0.179688 0.0189,0.02236 0.0391,0.04491 0.0566,0.06836 0.0774,0.103577 0.11631,0.228901 0.13281,0.355469 0.002,0.03196 0.005,0.06367 0.006,0.0957 0.003,0.122897 -0.0153,0.245682 -0.0332,0.367187 0.27847,0.0098 0.27373,-0.04738 0.27539,0.117188 -0.0215,0.138208 -0.0462,0.276763 -0.0605,0.416015 -0.003,0.03194 -0.004,0.06371 -0.006,0.0957 0.0726,-0.0043 0.072,0.01439 0.0586,0.130859 v 0.002 c 0.002,0.0014 0.002,3.12e-4 0.004,0.002 0.10619,0.05511 0.20343,0.124112 0.29493,0.201172 0.10747,0.08445 0.22478,0.191903 0.23828,0.339844 0.004,0.04734 0.011,0.104588 -0.0176,0.142578 -0.0543,0.07222 -0.14159,0.110476 -0.21289,0.166016 -0.0863,0.0062 -0.17377,0.0018 -0.25977,-0.0078 -0.11747,-0.01463 -0.23403,-0.03432 -0.33594,-0.09766 -0.0101,0.0845 -0.0265,0.167732 -0.0547,0.248047 -0.015,0.03051 -0.0283,0.0621 -0.0449,0.0918 -0.006,0.01149 -0.0154,0.02093 -0.0234,0.03125 -0.063,0.07966 -0.14319,0.14395 -0.24805,0.15625 -0.0907,0.0087 -0.18244,0.0054 -0.27344,0.0039 -0.0996,-8e-4 -0.19943,-0.0044 -0.29883,-0.0098 -0.13654,-0.0073 -0.27313,-0.01305 -0.40624,-0.04687 -0.14478,-0.03927 -0.28449,-0.0975 -0.4004,-0.195312 -0.0232,-0.02245 -0.0467,-0.04447 -0.0684,-0.06836 -0.0142,-0.01559 -0.0268,-0.03192 -0.0391,-0.04883 -0.066,-0.0011 -0.13134,-0.0024 -0.19726,-0.0059 -0.12696,-0.0069 -0.25987,-0.01258 -0.37696,-0.06641 -0.0219,-0.01331 -0.0454,-0.02443 -0.0664,-0.03906 -0.0779,-0.05427 -0.13012,-0.140782 -0.16602,-0.226562 -0.007,-0.02447 -0.0155,-0.04745 -0.0215,-0.07227 -0.0204,-0.08971 -0.0113,-0.18246 -0.0117,-0.273437 10e-4,-0.120508 0.004,-0.241047 0.0117,-0.361329 0.0117,-0.187731 0.0297,-0.376331 0.0566,-0.5625 0.0372,-0.249301 0.084,-0.495566 0.16015,-0.736328 0.0388,-0.141707 0.0825,-0.284919 0.10743,-0.429687 0.0364,-0.21136 0.15524,-0.314472 0.26757,-0.324219 z m 2.38282,2.189453 c -0.006,0.05541 -0.0154,0.135641 -0.0195,0.244141 0.007,0.01726 0.0138,0.03052 0.0195,0.04297 0.0147,-0.0296 0.0275,-0.07275 0.0547,-0.144532 -0.007,-0.02988 -0.007,-0.06176 -0.0195,-0.08984 -0.011,-0.02492 -0.0244,-0.04122 -0.0352,-0.05273 z m -1.20508,-1.419922 c -0.0258,6.37e-4 -0.0499,0.0075 -0.0762,0.01172 -0.0112,0.0018 -0.0229,0.0013 -0.0332,0.0059 -0.008,0.0035 0.0164,-0.0013 0.0254,-0.002 -0.0675,0.05188 -0.11885,0.121653 -0.16015,0.195313 -0.0777,0.144988 -0.12715,0.302884 -0.17188,0.460937 0.0268,-0.02215 0.0542,-0.04332 0.082,-0.06445 0.0602,-0.04679 0.12486,-0.09126 0.19336,-0.125 0.0131,-0.0065 0.0246,-0.01538 0.0391,-0.01758 0.0527,-0.0082 0.10695,-0.0074 0.16015,-0.01172 0.14755,0.06947 0.1382,0.03728 0.2168,0.216797 0.011,0.02396 0.01,0.05204 0.008,0.07813 -0.007,0.09477 -0.0421,0.184528 -0.0723,0.273438 -0.0259,0.09091 -0.0685,0.175025 -0.10938,0.259765 -0.0263,0.0544 -0.0561,0.09988 -0.0879,0.134766 0.0824,-0.0062 0.16389,-0.01296 0.24609,-0.02148 0.0341,-0.06541 0.0634,-0.132306 0.0781,-0.205079 0.0328,-0.184891 0.0814,-0.367626 0.11328,-0.552734 0.0138,-0.12972 0.0457,-0.263814 0.0254,-0.394531 -0.007,-0.03954 -0.0251,-0.117502 -0.0644,-0.138672 -0.0337,-0.02355 -0.0828,-0.06851 -0.125,-0.07031 -0.0854,-0.0199 -0.17257,-0.02575 -0.25977,-0.03125 -0.009,-0.0013 -0.0188,-0.0022 -0.0273,-0.002 z m 1.19531,0.826172 c -0.003,0.006 -0.004,0.01139 -0.006,0.01758 0.006,6.2e-4 0.008,-0.02328 0.006,-0.01758 z m -2.45508,0.253906 c -0.006,0.07687 -0.0151,0.153417 -0.0195,0.230469 -0.005,0.112876 -0.008,0.226864 -0.01,0.339844 -8e-5,0.01754 8e-5,0.03519 0,0.05273 0,0.03469 6.6e-4,0.07495 0.008,0.111328 0.0126,-1.9e-4 0.0246,0.002 0.0371,0.0039 -0.003,-0.0077 -0.005,-0.01583 -0.008,-0.02344 0.0188,-0.02162 0.0357,-0.04356 0.0527,-0.06641 3.8e-4,-0.0011 0.002,-0.0029 0.002,-0.0039 0.0149,-0.04054 0.0254,-0.05011 0.0605,-0.09766 0.006,-0.0052 0.0118,-0.01029 0.0176,-0.01563 0.0101,-0.01609 0.0195,-0.03256 0.0293,-0.04883 0.004,-0.03902 0.009,-0.07816 0.0137,-0.117187 0.006,-0.04699 0.022,-0.09193 0.0293,-0.138672 -0.0195,-0.0221 -0.0391,-0.0443 -0.0586,-0.06641 -0.0497,-0.055 -0.10178,-0.108291 -0.1543,-0.160157 z m -0.0215,0.734375 c 10e-4,0.0051 -0.002,0.01078 0,0.01563 0.002,0.0066 0.003,-0.0028 0.004,-0.002 0.006,0.0051 0.0102,0.0089 0.0117,0.0098 -0.002,-0.003 -0.008,-0.0127 -0.0137,-0.01758 -0.007,-0.0018 -0.0136,-0.0057 -0.002,-0.0059 z m 1.71875,0.1875 c -0.0285,0.03121 -0.0596,0.06177 -0.0918,0.08984 -0.0289,0.02241 -0.0558,0.04572 -0.0859,0.06641 -0.0227,0.01562 -0.0472,0.03104 -0.0723,0.04492 0.0308,5.14e-4 0.061,0.0014 0.0918,0.002 0.0435,2.87e-4 0.0874,-1.47e-4 0.13085,0 0.0157,-0.06667 0.0218,-0.135009 0.0274,-0.203125 z m 0.0469,0.191407 c -0.005,0.0013 -0.0146,0.007 -0.0273,0.01367 0.0234,0.0024 0.0268,0.0083 0.0234,-0.0039 0.01,-0.0086 0.009,-0.0109 0.004,-0.0098 z" />
    </clipPath>
    <clipPath
       clipPathUnits="userSpaceOnUse"
       id="clipPath102">
      <path
         id="path103"
         style="fill:#ff0000;fill-opacity:1;fill-rule:nonzero;stroke:none"
         d="m 425.78906,71.419922 v 0.929687 h 34.37891 c 1.2e-4,-0.105598 -6.1e-4,-0.210768 0,-0.316406 -1.1e-4,-0.02798 6e-5,-0.05599 0,-0.08398 -0.003,-0.0125 -0.008,-0.02452 -0.01,-0.03711 -0.007,-0.03778 0.005,-0.05966 0.01,-0.08789 3e-5,-0.04298 -2.1e-4,-0.08596 0,-0.128907 1.9e-4,-0.0919 4e-5,-0.183571 0,-0.27539 z m 37.70508,0 c -0.0181,0.112289 -0.0372,0.224869 -0.0488,0.33789 -0.003,0.03194 -0.004,0.06371 -0.006,0.0957 0.0726,-0.0043 0.072,0.01439 0.0586,0.130859 v 0.002 c 0.002,0.0014 0.002,3.12e-4 0.004,0.002 0.10619,0.05511 0.20343,0.124112 0.29493,0.201172 0.058,0.04556 0.1182,0.09846 0.16406,0.160156 h 24.83008 v -0.929687 z m 0.004,0.566406 c -0.006,0.05541 -0.0154,0.135641 -0.0195,0.244141 0.007,0.01726 0.0138,0.03052 0.0195,0.04297 0.0147,-0.0296 0.0275,-0.07275 0.0547,-0.144532 -0.007,-0.02988 -0.007,-0.06176 -0.0195,-0.08984 -0.011,-0.02492 -0.0244,-0.04122 -0.0352,-0.05273 z m -1.08985,-0.167969 c -0.005,0.0097 -0.009,0.01956 -0.0137,0.0293 -0.0263,0.0544 -0.0561,0.09988 -0.0879,0.134766 0.0615,-0.0046 0.12248,-0.0099 0.18359,-0.01563 -0.004,-0.0074 -0.01,-0.01408 -0.0137,-0.02148 -0.0235,-0.0423 -0.0462,-0.08439 -0.0684,-0.126953 z" />
    </clipPath>
  </defs>
  <sodipodi:namedview
     id="namedview101"
     pagecolor="#ffffff"
     bordercolor="#000000"
     borderopacity="0.25"
     inkscape:showpageshadow="2"
     inkscape:pageopacity="0.0"
     inkscape:pagecheckerboard="0"
     inkscape:deskcolor="#d1d1d1"
     inkscape:zoom="0.5"
     inkscape:cx="598"
     inkscape:cy="297"
     inkscape:window-width="1920"
     inkscape:window-height="1046"
     inkscape:window-x="-11"
     inkscape:window-y="-11"
     inkscape:window-maximized="1"
     inkscape:current-layer="svg101" />
  <path
     id="rect18-8-6-8-1"
     style="fill:#000000;stroke-width:1.0048"
     d="m 3.6992188,2.453125 0.1875,217.234375 H 16.074219 v -0.0801 H 185.57031 v 0.75781 h 1.2168 v 3.31641 h 1.02734 v 1.77148 h 0.89258 v 1.24805 h 0.80078 v 0.60352 h 0.56446 v 0.63086 h 0.60546 v 0.98437 h 1.02344 v 0.60352 h 0.94531 v 0.53906 h 0.55274 v 0.5918 h 1.48242 v 0.55078 h 1.94531 v 0.78711 h 1.73047 v 0.46484 h 3.19336 V 220.0293 h 31.5957 v 12.17968 h 1.80079 v 0.30664 h 1.96875 v -1.21679 h 3.3164 v -1.02735 h 1.77149 v -0.89257 h 1.24804 v -0.80079 h 0.60352 v -0.56445 h 0.63086 v -0.60351 h 0.98437 v -1.02539 h 0.60352 v -0.94336 h 0.53906 v -0.55469 h 0.5918 v -1.48242 h 0.55078 v -1.94532 h 0.78711 v -0.68359 h 170.76562 v 0.0352 h 7.35547 v -8.44922 h 62.15039 v -0.0918 h 0.0176 V 71.654297 h -0.041 v -0.234375 h -22.23829 c -8.8e-4,0.0078 -6.4e-4,0.01567 -0.002,0.02344 -0.0173,0.167784 -0.04,0.337058 -0.043,0.50586 -5.6e-4,0.134121 0.007,0.267561 0.0254,0.40039 h 21.28516 V 80 h -4.21875 l 3.48437,-4.132812 -0.74023,-0.677735 L 482.29102,80 H 431.72266 L 427.65039,75.921875 427.03516,76.71875 430.30859,80 h -3.64453 v -7.650391 h 19.22071 c -0.0134,-0.02965 -0.0215,-0.06753 -0.0215,-0.113281 V 72.03125 71.830078 71.589844 c -0.0451,-0.05658 -0.0928,-0.111136 -0.13476,-0.169922 H 426.66406 V 15.306641 h -7.35547 V 211.33008 H 247.55078 v 5.20508 h -13.48047 v -4.45899 h -12.8164 V 15.244141 h 312.16601 v 54.738281 h 5.80664 l -1.4414,0.0078 0.0801,14.927735 0.63086,-0.0039 0.002,0.1875 h -4.77539 v 13.658204 h 4.06836 l -0.0781,14.595699 1.75,0.01 h 0.0664 v 0.3086 l 1.98632,0.0117 0.006,-1.22852 3.34766,0.0176 0.006,-1.03711 1.78711,0.008 0.006,-0.9004 1.25976,0.006 0.004,-0.80858 0.60938,0.004 0.004,-0.57031 0.63672,0.004 0.002,-0.61133 0.99414,0.006 0.006,-1.0332 0.60938,0.002 0.004,-0.95313 0.54492,0.002 0.002,-0.5586 0.59766,0.004 0.008,-1.49805 0.55664,0.004 0.01,-1.96485 0.79493,0.004 0.008,-1.74609 0.4707,0.002 0.0156,-3.224614 -13.99024,-0.07227 v -3.19336 h 84.74024 v 72.916014 h -85.0918 v -53.89844 h -6.09375 v 60.79493 h 4.86914 v 0.0391 h 86.31641 v 45.62109 h 0.87695 v 42.65039 h -0.64453 v 0.0742 H 607.9668 l -0.0645,-12.01562 -3.33007,0.0176 0.002,0.46484 -1.80274,0.008 0.004,0.78711 -2.0293,0.01 0.004,0.55078 -1.54492,0.008 0.002,0.5918 -0.57617,0.004 0.002,0.53907 -0.98437,0.006 0.002,0.60157 -1.06641,0.008 0.006,0.98438 -0.63086,0.002 0.002,0.63086 -0.58789,0.004 0.004,0.60352 -0.83593,0.004 0.008,1.24804 -0.93164,0.006 0.01,1.77149 -1.07031,0.006 0.0176,3.3164 -1.26758,0.006 0.002,0.2832 h -342.2394 l 0.006,-1.07421 -1.21679,-0.008 0.0176,-3.3164 -1.02734,-0.006 0.01,-1.77149 -0.89258,-0.006 0.008,-1.24804 -0.80078,-0.004 0.002,-0.60352 -0.56445,-0.004 0.004,-0.63086 -0.60546,-0.002 0.006,-0.98438 -1.02343,-0.006 0.002,-0.60351 -0.94531,-0.006 0.002,-0.53907 -0.55273,-0.002 0.004,-0.5918 -1.48242,-0.008 0.002,-0.55078 -1.94531,-0.0117 0.004,-0.78711 -1.73047,-0.008 0.002,-0.46484 -3.1914,-0.0176 -0.0664,12.71094 H 202.0091 l -0.0684,-12.70899 -3.22265,0.0176 0.002,0.46484 -1.74805,0.01 0.004,0.78711 -1.96289,0.01 0.002,0.55078 -1.49609,0.008 0.002,0.59179 -0.55664,0.004 0.002,0.53906 -0.95507,0.004 0.004,0.60351 -1.03515,0.006 0.008,0.98438 -0.61133,0.004 0.002,0.63085 -0.57031,0.002 0.004,0.60351 -0.8086,0.006 0.008,1.24805 -0.90235,0.004 0.01,1.77148 -1.03711,0.006 0.0176,3.31641 -1.22852,0.008 0.004,0.74023 H 15.697266 V 220.2416 h -0.59375 v 42.41992 h -0.183594 v 0.48047 H 3.7148438 V 480.66211 H 15.453125 v 0.14844 H 637.71484 V 468.0332 262.4707 h -1.12109 v -42.65039 h 0.88672 V 11.878906 l -0.0646,-9.3912619 -1.19324,-0.0228 H 16.074219 v 0 z M 16.074219,15.244141 H 213.89844 V 212.07617 h -12.81836 v 5.15039 h -0.41992 v -0.63086 h -14.27735 v -4.57812 H 16.074219 Z m 523.439451,0 h 85.04102 v 72.167968 h -84.74024 v -1.605468 l 13.91797,-0.07422 -0.0176,-3.22461 -0.46484,0.002 -0.008,-1.746094 -0.78711,0.0039 -0.0117,-1.964844 -0.55078,0.0039 -0.008,-1.496094 -0.5918,0.002 -0.002,-0.556641 -0.53907,0.002 -0.006,-0.955078 -0.60351,0.002 -0.006,-1.033204 -0.98438,0.0059 -0.002,-0.609375 -0.63086,0.002 -0.004,-0.570313 -0.60351,0.0039 -0.004,-0.808594 -1.24804,0.0059 -0.006,-0.90039 -1.77149,0.0098 -0.006,-1.037109 -3.3164,0.01758 -0.008,-1.228516 -1.96875,0.0098 0.002,0.308594 h -0.0723 z m 1.79688,55.832031 0.006,0.925781 3.0664,-0.01563 0.006,1.195313 1.78516,-0.0098 0.004,0.927734 1.37891,-0.0059 0.002,0.515625 0.5918,-0.002 0.004,0.423828 0.35351,-0.002 v 0.291015 l 0.40821,-0.002 0.006,0.822266 0.86523,-0.0039 0.004,0.822265 0.52539,-0.002 0.002,0.542969 0.64453,-0.002 0.008,1.578125 0.60352,-0.0039 0.0137,2.505859 0.72266,-0.002 0.004,0.9375 -12.64257,0.06836 -0.0606,-11.49414 z m -92.67969,0.34375 c 0.0234,0.0059 0.0466,0.01234 0.0703,0.01758 0.003,6.24e-4 0.007,0.0014 0.01,0.002 10e-4,-0.0066 0.003,-0.01298 0.004,-0.01953 z m 1.99219,0 c 0.003,0.002 0.007,0.0039 0.01,0.0059 0.002,-0.0018 0.004,-0.0039 0.006,-0.0059 z m 1.93945,0 c -0.0336,0.135349 -0.069,0.270419 -0.10156,0.40625 -0.0419,0.172714 -0.0773,0.347867 -0.10547,0.523437 h 7.94336 c -0.0438,-0.236757 -0.0676,-0.477759 -0.0664,-0.716797 -0.001,-0.07079 -4.5e-4,-0.14205 -0.002,-0.21289 z m 8.14062,0 c 9e-5,0.06902 -2.9e-4,0.137986 0,0.207031 -0.002,0.242474 0.026,0.485023 0.0762,0.722656 h 1.24414 c 0.10232,-0.311508 0.21295,-0.621024 0.32422,-0.929687 z m 2.13282,0 c -0.11279,0.307684 -0.21989,0.618413 -0.32227,0.929687 h 0.72071 c -0.009,-0.309694 -0.01,-0.619712 -0.008,-0.929687 z m 0.87109,0.65625 c 0.002,0.09109 -4.9e-4,0.182274 0.004,0.273437 h 0.0898 c -0.022,-0.0946 -0.0529,-0.184593 -0.0937,-0.273437 z m -15.16797,0.002 c -0.003,0.0021 -0.007,0.0038 -0.01,0.0059 0.003,0.0021 0.005,0.0038 0.008,0.0059 0.002,-0.0025 0.004,-0.0053 0.006,-0.0078 -0.001,-0.0012 -0.003,-0.0027 -0.004,-0.0039 z m 3.20508,0.183594 c 0.002,0.01556 0.004,0.03142 0.006,0.04687 0.001,-0.0083 -10e-4,-0.01288 0.006,-0.03711 4.9e-4,-0.0033 -6.4e-4,-0.0065 0.002,-0.0098 -0.004,0.0019 -0.009,-0.0012 -0.0137,0 z m -1.19531,0.01367 c -0.0252,0.02492 -0.051,0.04933 -0.0762,0.07422 h 0.0469 c 0.009,-0.02489 0.02,-0.04929 0.0293,-0.07422 z m -2.9375,0.03711 c -0.006,0.01543 -0.011,0.02681 -0.0156,0.03711 h 0.0879 c -0.0182,-0.01332 -0.0382,-0.02495 -0.0605,-0.0332 -0.004,-0.0017 -0.008,-0.0026 -0.0117,-0.0039 z m 1.45117,0.01563 c -0.002,0.0071 -0.002,0.01444 -0.004,0.02148 h 0.004 c 4e-5,-0.0027 -8e-5,-0.0051 0,-0.0078 1.5e-4,-0.0046 -1.4e-4,-0.0091 0,-0.01367 z m -22.39844,8.599609 h 4.57032 l 0.18945,0.189454 0.14648,-0.189454 h 24.48242 v 0.230469 l -4.13476,4.126953 0.79883,0.617188 3.33593,-3.332032 v 4.798829 h -29.38867 z m 30.40235,0 h 30.75195 v 6.441407 h -30.75195 v -4.753907 l 3.375,3.38086 0.61718,-0.796875 -3.99218,-4 z m -30.40235,7.371094 h 29.38867 v 6.251953 h -29.38867 z m 30.40235,0 h 30.75195 v 6.251953 h -30.75195 z m -30.40235,7.181641 h 29.38867 V 102 h -29.38867 z m 30.40235,0 h 30.75195 V 102 h -30.75195 z m 82.54882,5.28515 12.75977,0.0664 -0.004,0.93945 -0.73047,-0.004 -0.0117,2.50586 -0.60938,-0.002 -0.008,1.57618 -0.65039,-0.002 -0.002,0.54297 -0.53126,-0.002 -0.004,0.82226 -0.87305,-0.004 -0.006,0.82226 -0.41211,-0.002 v 0.29102 l -0.35742,-0.002 -0.002,0.42383 -0.59766,-0.002 -0.002,0.51562 -1.39063,-0.006 -0.006,0.92774 -1.80078,-0.008 -0.006,1.19336 -3.0957,-0.0156 -0.004,0.92773 -1.71679,-0.0117 z m -112.95117,2.16211 h 29.38867 V 109 h -29.38867 z m 30.40235,0 h 30.75195 V 109 h -30.75195 z m -30.40235,7 h 29.38867 v 6.62305 h -29.38867 z m 30.40235,0 h 30.75195 v 6.62305 h -30.75195 z m -30.40235,7.55274 h 29.38867 V 124 h -29.38867 z m 30.40235,0 h 30.75195 V 124 h -30.75195 z m -30.40235,7.44726 h 29.38867 V 131 h -29.38867 z m 30.40235,0 h 30.75195 V 131 h -30.75195 z m -30.40235,7 h 29.38867 v 6.58985 h -29.38867 z m 30.40235,0 h 30.75195 v 6.58985 h -30.75195 z m -30.40235,7.51758 h 29.38867 v 6.0293 h -29.38867 z m 30.40235,0 h 30.75195 v 6.0293 h -30.75195 z m -30.40235,6.95899 h 29.38867 V 153 h -29.38867 z m 30.40235,0 h 30.75195 V 153 h -30.75195 z m -30.40235,7.52343 h 29.38867 V 161 h -29.38867 z m 30.40235,0 h 30.75195 V 161 h -30.75195 z m -30.40235,8 h 29.38867 V 168 h -29.38867 z m 30.40235,0 h 30.75195 V 168 h -30.75195 z m -30.40235,7 h 29.38867 v 5.8086 h -29.38867 z m 30.40235,0 h 30.75195 v 5.8086 h -30.75195 z m -30.40235,6.73633 h 29.38867 V 182 h -29.38867 z m 30.40235,0 h 30.75195 V 182 h -30.75195 z m -30.40235,7.26367 h 29.38867 v 6.59961 h -29.38867 z m 30.40235,0 h 30.75195 v 6.59961 h -30.75195 z m -30.40235,7.52735 h 29.38867 v 5.9668 h -29.38867 z m 30.40235,0 h 30.75195 v 5.9668 h -30.75195 z m -30.40235,6.89648 h 29.38867 v 6.4375 h -29.38867 z m 30.40235,0 h 30.75195 v 6.4375 h -30.75195 z m -30.40235,7.36719 h 29.38867 v 6.71289 h -29.38867 z m 30.40235,0 h 30.75195 v 6.71289 h -30.75195 z m -270.09375,13.69727 h 11.38476 v 12.64453 h -0.92969 v -0.72266 h -2.48242 v -0.60351 h -1.5625 v -0.64454 h -0.53906 v -0.52539 h -0.81445 v -0.86523 h -0.81446 v -0.4082 h -0.28906 v -0.35352 h -0.41992 v -0.5918 h -0.51172 v -1.3789 h -0.91992 v -1.78516 h -1.1836 v -3.06641 h -0.91796 z m 47.99414,1.3125 h 12.58398 v 0.93164 h -0.66211 v 2.48046 h -0.60351 v 1.5625 h -0.64454 v 0.53907 h -0.52539 v 0.81445 H 244.25 v 0.81445 h -0.4082 v 0.28907 h -0.35352 v 0.41992 h -0.5918 v 0.51172 h -1.3789 v 0.91992 h -1.78516 v 1.18555 h -3.0664 v 0.91601 h -1.69922 z m 391.05859,0.0918 H 636 v 42.65039 h -9.97461 z M 4.7539062,220.05078 v 42.93945 H 5.3496094 V 220.05078 Z M 236.3457,251.1543 l 0.92969,0.004 -0.002,0.72266 2.48242,0.0137 -0.004,0.60352 1.5625,0.008 -0.002,0.64453 0.53906,0.002 -0.002,0.52539 0.81445,0.006 -0.006,0.86524 0.81446,0.004 -0.002,0.40821 0.28907,0.002 -0.002,0.35352 0.41992,0.002 -0.002,0.5918 0.51172,0.002 -0.008,1.37891 0.91992,0.004 -0.01,1.78516 1.1836,0.006 -0.0156,3.0664 0.91797,0.006 -0.0117,1.69922 -11.38281,-0.0586 z m -37.625,0.002 0.0684,12.64453 -11.49414,0.0586 -0.0117,-1.69922 0.92578,-0.004 -0.0156,-3.06641 1.19531,-0.008 -0.01,-1.78515 0.92968,-0.004 -0.008,-1.37891 0.51758,-0.002 -0.004,-0.5918 0.42383,-0.002 -0.002,-0.35352 0.29101,-0.002 -0.002,-0.4082 0.82227,-0.004 -0.004,-0.86523 0.82227,-0.006 -0.002,-0.52539 0.54492,-0.002 -0.004,-0.64453 1.57812,-0.008 -0.004,-0.60352 2.50586,-0.0137 -0.002,-0.72265 z m 405.85547,0.78906 0.0684,12.64453 -11.86719,0.0606 -0.0137,-1.70117 0.95703,-0.004 -0.0156,-3.0664 1.23242,-0.006 -0.008,-1.78516 0.95898,-0.006 -0.008,-1.37891 0.5332,-0.002 -0.002,-0.59179 0.4375,-0.002 -0.002,-0.35351 h 0.30078 l -0.002,-0.40821 0.84961,-0.006 -0.006,-0.86523 0.84961,-0.004 -0.002,-0.52539 0.5625,-0.002 -0.004,-0.64453 1.62891,-0.008 -0.004,-0.60352 2.5879,-0.0137 -0.002,-0.72266 z m -370.70508,13.02735 h 0.0996 l -0.004,0.63086 14.46289,0.0781 v 5.33203 H 419.03711 V 468.0332 H 222.31445 V 271.27344 h 11.55664 z m -32.99023,0.63476 v 5.66602 h 14.07812 V 468.0332 H 16.195312 V 271.0625 H 186.80273 v -5.38086 z m 406.17578,0.15625 h 0.0488 v 5.54688 h 17.68164 V 468.0332 H 426.39062 V 271.01367 h 165.70899 v -4.53906 l 14.95898,-0.0801 z"
     sodipodi:nodetypes="cccccccccccccccccccccccccccccccccccccccccccccccccccccccccccccccccccccccccccccccccccccccsccccccccccccccccccccccccccccccccccccccccccccccccccccccccccccccccccccccccccccccccccccccccccccccccccccccccccccccccccccccccccccccccccccccccccccccccccccccccccccccccccccccccccccccccccccccccccccccccccccccccccccccccccccccccccccccccccccccccccccccccccccccccccsccccccccccccccccccccccccccccccccccccccccccccccsccccscccccccccccccccccccccccccccccccccccccccccccccccccccccccccccccccccccccccccccccccccccccccccccccccccccccccccccccccccccccccccccccccccccccccccccccccccccccccccccccccccccccccccccccccccccccccccccccccccccccccccccccccccccccccccccccccccccccccccccccccccccccccccccccccccccccccccccccccccccccccccccccccccccccccccccccccccccccccccccccccccccccccccccccccccccccccccccccccccccccccccccccccccccccccccccccccccccccccccccccccc" />
  <path
     id="rect159"
     style="fill:#ffffff;stroke-width:1.42191;stroke-dasharray:none"
     d="M 431.66797 71.419922 L 431.66797 72.349609 L 438.86523 72.349609 L 438.86523 71.419922 L 431.66797 71.419922 z M 459.66602 71.419922 L 459.66602 72.349609 L 466.86328 72.349609 L 466.86328 71.419922 L 459.66602 71.419922 z M 473.57227 71.419922 L 473.57227 72.349609 L 480.76953 72.349609 L 480.76953 71.419922 L 473.57227 71.419922 z M 445.53516 71.507812 L 445.53516 72.4375 L 452.73242 72.4375 L 452.73242 71.507812 L 445.53516 71.507812 z M 487.81836 75.189453 L 487.81836 79.050781 L 488.83203 79.050781 L 488.83203 75.189453 L 487.81836 75.189453 z " />
</svg>
