<?xml version="1.0" encoding="UTF-8"?>
<svg version="1.1" xmlns="http://www.w3.org/2000/svg" width="640" height="482">
<path d="M0 0 C211.2 0 422.4 0 640 0 C640 159.06 640 318.12 640 482 C428.8 482 217.6 482 0 482 C0 322.94 0 163.88 0 0 Z " fill="#1F1E1E" transform="translate(0,0)"/>
<path d="M0 0 C134.97 0 269.94 0 409 0 C409 67.32 409 134.64 409 204 C408.67 204 408.34 204 408 204 C408 189.15 408 174.3 408 159 C377.97 159 347.94 159 317 159 C316.979375 149.47125 316.95875 139.9425 316.9375 130.125 C316.928396 127.1152002 316.91929199 124.10540039 316.90991211 121.00439453 C316.90699272 118.63053431 316.90444421 116.25667359 316.90234375 113.8828125 C316.89722778 112.64072021 316.89211182 111.39862793 316.88684082 110.11889648 C316.88671997 108.94157959 316.88659912 107.7642627 316.88647461 106.55126953 C316.884254 105.52534698 316.88203339 104.49942444 316.87974548 103.44241333 C317 101 317 101 318 99 C317.34 99.33 316.68 99.66 316 100 C315.67 120.13 315.34 140.26 315 161 C345.03 161 375.06 161 406 161 C406 190.37 406 219.74 406 250 C400.39 250 394.78 250 389 250 C389 246.04 389 242.08 389 238 C387.35 238.33 385.7 238.66 384 239 C384.66 239.33 385.32 239.66 386 240 C386 243.96 386 247.92 386 252 C382.37 252 378.74 252 375 252 C375.33 249.69 375.66 247.38 376 245 C375.34 246.65 374.68 248.3 374 250 C330.26163082 250.18301337 286.52330209 250.32402759 242.78462567 250.40852264 C237.62375047 250.41852858 232.46287603 250.42888313 227.30200195 250.43945312 C225.76081206 250.44260085 225.76081206 250.44260085 224.18848702 250.44581217 C207.54044211 250.48064593 190.89261765 250.54373519 174.24470363 250.61722237 C157.16907585 250.69197028 140.09356373 250.73645659 123.01777905 250.75270796 C112.47649801 250.76369843 101.93583999 250.79843984 91.39475068 250.86333174 C84.17146376 250.90554036 76.94850007 250.91841891 69.72509871 250.90801102 C65.55402779 250.90287426 61.38404729 250.91088061 57.2131691 250.9536438 C53.39613753 250.99249422 49.58093224 250.99459968 45.76381769 250.96719116 C44.38146701 250.9638026 42.99900373 250.97402628 41.61687569 250.99906546 C31.23132269 251.1763081 31.23132269 251.1763081 28.1396507 248.22276974 C26.80244732 246.06096649 26.80244732 246.06096649 25.85762662 243.9053874 C24.58257318 241.07260364 22.79344788 240.18721535 20 239 C18.35 238.67 16.7 238.34 15 238 C15 241.96 15 245.92 15 250 C4.44 250 -6.12 250 -17 250 C-17 246.04 -17 242.08 -17 238 C-17.99 238.33 -18.98 238.66 -20 239 C-20 243.29 -20 247.58 -20 252 C-23.63 252 -27.26 252 -31 252 C-31.33 251.01 -31.66 250.02 -32 249 C-32.33 249.33 -32.66 249.66 -33 250 C-35.18959038 250.09698498 -37.3823753 250.12186727 -39.57411194 250.12025452 C-40.26917026 250.12110894 -40.96422859 250.12196337 -41.68034929 250.12284368 C-44.02658986 250.12450049 -46.37276008 250.11897387 -48.71899414 250.11352539 C-50.39399718 250.11324354 -52.06900033 250.11340122 -53.7440033 250.1139679 C-58.30579279 250.11425594 -62.86755623 250.10835814 -67.42933965 250.10139394 C-72.19129 250.09516151 -76.9532409 250.09455669 -81.7151947 250.09336853 C-90.73915566 250.09025489 -99.76310456 250.08204106 -108.7870602 250.07201904 C-119.05774487 250.06085893 -129.32843009 250.05534771 -139.59911931 250.05032361 C-160.73275443 250.03985847 -181.86637303 250.02151258 -203 250 C-203 236.14 -203 222.28 -203 208 C-146.57 208 -90.14 208 -32 208 C-31.67 207.34 -31.34 206.68 -31 206 C-27.37 206 -23.74 206 -20 206 C-20 209.96 -20 213.92 -20 218 C-20.66 218.33 -21.32 218.66 -22 219 C-20.35 219.33 -18.7 219.66 -17 220 C-17 216.04 -17 212.08 -17 208 C-6.44 208 4.12 208 15 208 C15.99 209.98 16.98 211.96 18 214 C21.28754511 213.42110619 22.93672495 212.45171589 25.25 210.0625 C25.77078125 209.53785156 26.2915625 209.01320312 26.828125 208.47265625 C28.207556 207.05284165 28.207556 207.05284165 28 205 C24.04 204.67 20.08 204.34 16 204 C16 203.34 16 202.68 16 202 C15.01 202.33 14.02 202.66 13 203 C8.71 202.67 4.42 202.34 0 202 C0 135.34 0 68.68 0 0 Z " fill="#FEFEFE" transform="translate(218,12)"/>
<path d="M0 0 C4.62 0 9.24 0 14 0 C14 1.65 14 3.3 14 5 C18.62 5 23.24 5 28 5 C28 70.01 28 135.02 28 202 C-37.34 202 -102.68 202 -170 202 C-170 136.99 -170 71.98 -170 5 C-113.9 5 -57.8 5 0 5 C0 3.35 0 1.7 0 0 Z " fill="#FEFEFE" transform="translate(186,265)"/>
<path d="M0 0 C4.29 0 8.58 0 13 0 C13.33 1.65 13.66 3.3 14 5 C70.43 5 126.86 5 185 5 C185 70.01 185 135.02 185 202 C119.66 202 54.32 202 -13 202 C-13 136.99 -13 71.98 -13 5 C-9.04 5 -5.08 5 -1 5 C-0.67 3.35 -0.34 1.7 0 0 Z " fill="#FEFEFE" transform="translate(234,265)"/>
<path d="M0 0 C65.34 0 130.68 0 198 0 C198 65.01 198 130.02 198 197 C193.38 197 188.76 197 184 197 C183.67 198.32 183.34 199.64 183 201 C178.71 201 174.42 201 170 201 C170 199.68 170 198.36 170 197 C113.9 197 57.8 197 0 197 C0 131.99 0 66.98 0 0 Z " fill="#FEFEFE" transform="translate(16,15)"/>
<path d="M0 0 C65.34 0 130.68 0 198 0 C198 65.01 198 130.02 198 197 C141.24 197 84.48 197 26 197 C25.67 198.32 25.34 199.64 25 201 C21.04 201 17.08 201 13 201 C12.67 199.68 12.34 198.36 12 197 C8.04 197 4.08 197 0 197 C0 131.99 0 66.98 0 0 Z " fill="#FEFEFE" transform="translate(221,15)"/>
<path d="M0 0 C3.96 0 7.92 0 12 0 C12.33 1.32 12.66 2.64 13 4 C18.94 4 24.88 4 31 4 C31 69.01 31 134.02 31 201 C-34.34 201 -99.68 201 -167 201 C-167 136.32 -167 71.64 -167 5 C-112.22 5 -57.44 5 -1 5 C-0.67 3.35 -0.34 1.7 0 0 Z " fill="#FEFEFE" transform="translate(593,266)"/>
<path d="M0 0 C134.97 0 269.94 0 409 0 C409 67.32 409 134.64 409 204 C408.67 204 408.34 204 408 204 C408 189.15 408 174.3 408 159 C377.97 159 347.94 159 317 159 C316.979375 149.491875 316.95875 139.98375 316.9375 130.1875 C316.928396 127.1868042 316.91929199 124.1861084 316.90991211 121.09448242 C316.90699223 118.72314499 316.90444384 116.35180705 316.90234375 113.98046875 C316.89722778 112.74349243 316.89211182 111.50651611 316.88684082 110.23205566 C316.88671997 109.05485962 316.88659912 107.87766357 316.88647461 106.66479492 C316.884254 105.64109299 316.88203339 104.61739105 316.87974548 103.56266785 C317 101 317 101 318 98 C318.22325814 95.94106379 318.40705759 93.87766347 318.5625 91.8125 C318.68818359 90.18248047 318.68818359 90.18248047 318.81640625 88.51953125 C318.87699219 87.68808594 318.93757813 86.85664062 319 86 C317.68 85.67 316.36 85.34 315 85 C314.91921359 82.87561661 314.86090859 80.7503677 314.8125 78.625 C314.77769531 77.44164063 314.74289062 76.25828125 314.70703125 75.0390625 C314.80371094 74.03617187 314.90039062 73.03328125 315 72 C316.485 71.01 316.485 71.01 318 70 C318.58481121 67.11404054 318.58481121 67.11404054 318.6875 63.875 C318.78611328 62.23144531 318.78611328 62.23144531 318.88671875 60.5546875 C318.92410156 59.71164063 318.96148438 58.86859375 319 58 C317.68 58 316.36 58 315 58 C315 39.85 315 21.7 315 3 C279.36 3 243.72 3 207 3 C207 21.48 207 39.96 207 59 C208.98 59 210.96 59 213 59 C213 59.33 213 59.66 213 60 C211.35 60 209.7 60 208 60 C208.99 62.97 208.99 62.97 210 66 C209.01 66.495 209.01 66.495 208 67 C226.81 67 245.62 67 265 67 C265.66 65.68 266.32 64.36 267 63 C267 63.99 267 64.98 267 66 C267.66 66.33 268.32 66.66 269 67 C269 64.69 269 62.38 269 60 C266.69 60 264.38 60 262 60 C262 59.67 262 59.34 262 59 C264.97 59 267.94 59 271 59 C271 105.53 271 152.06 271 200 C250.21 200 229.42 200 208 200 C208 202.64 208 205.28 208 208 C149.26 208 90.52 208 30 208 C28 203 28 203 29 200 C85.76 200 142.52 200 201 200 C201 134.99 201 69.98 201 3 C135.66 3 70.32 3 3 3 C3 68.01 3 133.02 3 200 C6.96 200 10.92 200 15 200 C14.67 200.99 14.34 201.98 14 203 C9.38 202.67 4.76 202.34 0 202 C0 135.34 0 68.68 0 0 Z " fill="#141414" transform="translate(218,12)"/>
<path d="M0 0 C211.2 0 422.4 0 640 0 C640 159.06 640 318.12 640 482 C428.8 482 217.6 482 0 482 C0 322.94 0 163.88 0 0 Z M218 12 C218 78.66 218 145.32 218 214 C226.27475069 215.38256172 226.27475069 215.38256172 234 214 C234 214.66 234 215.32 234 216 C237.96 216.33 241.92 216.66 246 217 C244.02953918 220.94092164 242.27715536 223.12249773 239 226 C238.01 226 237.02 226 236 226 C235.01 224.02 234.02 222.04 233 220 C222.44 220 211.88 220 201 220 C201 223.96 201 227.92 201 232 C199.35 231.67 197.7 231.34 196 231 C196.66 230.67 197.32 230.34 198 230 C198 226.04 198 222.08 198 218 C194.37 218 190.74 218 187 218 C186.67 218.66 186.34 219.32 186 220 C129.57 220 73.14 220 15 220 C15 233.86 15 247.72 15 262 C11.04 262 7.08 262 3 262 C3 334.27 3 406.54 3 481 C212.22 481 421.44 481 637 481 C637 407.08 637 333.16 637 257 C636.01 257 635.02 257 634 257 C634 258.65 634 260.3 634 262 C630.7 262 627.4 262 624 262 C624 232.63 624 203.26 624 173 C593.97 173 563.94 173 533 173 C533.33 152.87 533.66 132.74 534 112 C534.66 111.67 535.32 111.34 536 111 C535.83734146 111.54460876 535.67468292 112.08921753 535.50709534 112.65032959 C534.92194843 115.36165875 534.88022546 117.82010391 534.88647461 120.59472656 C534.88659546 121.73119629 534.88671631 122.86766602 534.88684082 124.03857422 C534.89195679 125.22725098 534.89707275 126.41592773 534.90234375 127.640625 C534.90335083 128.73745605 534.90435791 129.83428711 534.90539551 130.96435547 C534.9106255 135.05958096 534.92458677 139.15479153 534.9375 143.25 C534.9684375 156.98625 534.9684375 156.98625 535 171 C565.03 171 595.06 171 626 171 C626 185.85 626 200.7 626 216 C626.33 216 626.66 216 627 216 C627 148.68 627 81.36 627 12 C492.03 12 357.06 12 218 12 Z M16 15 C16 80.01 16 145.02 16 212 C72.1 212 128.2 212 186 212 C186 213.32 186 214.64 186 216 C190.29 216 194.58 216 199 216 C199.33 214.68 199.66 213.36 200 212 C204.62 212 209.24 212 214 212 C214 146.99 214 81.98 214 15 C148.66 15 83.32 15 16 15 Z " fill="#292927" transform="translate(0,0)"/>
<path d="M0 0 C1.32 0 2.64 0 4 0 C4 3.96 4 7.92 4 12 C14.56 12 25.12 12 36 12 C36 8.04 36 4.08 36 0 C41.86892562 0.35213554 45.04629841 1.57561965 49 6 C49.77991124 8.7707373 49.90130193 11.08840687 50 14 C44.06 14.495 44.06 14.495 38 15 C37.67 15.99 37.34 16.98 37 18 C31.72 18 26.44 18 21 18 C21 84.66 21 151.32 21 220 C155.97 220 290.94 220 430 220 C430 153.01 430 86.02 430 17 C424.06 17 418.12 17 412 17 C412 16.34 412 15.68 412 15 C420.25 15 428.5 15 437 15 C437 85.29 437 155.58 437 228 C229.76 228 22.52 228 -191 228 C-191 157.71 -191 87.42 -191 15 C-132.59 15 -74.18 15 -14 15 C-14 15.66 -14 16.32 -14 17 C-70.1 17 -126.2 17 -184 17 C-184 83.99 -184 150.98 -184 220 C-116.68 220 -49.36 220 20 220 C20 153.34 20 86.68 20 18 C15.38 18 10.76 18 6 18 C5.67 18 5.34 18 5 18 C4.34 18.33 3.68 18.66 3 19 C3 17.68 3 16.36 3 15 C-1.29 15 -5.58 15 -10 15 C-10 14.67 -10 14.34 -10 14 C-6.37 14 -2.74 14 1 14 C0.67 9.38 0.34 4.76 0 0 Z " fill="#787367" transform="translate(197,250)"/>
<path d="M0 0 C2.97 0 5.94 0 9 0 C9 46.53 9 93.06 9 141 C-54 141 -54 141 -56 140 C-56.33 141.98 -56.66 143.96 -57 146 C-57.33 146 -57.66 146 -58 146 C-58 101.12 -58 56.24 -58 10 C-36.22 10 -14.44 10 8 10 C7.505 9.01 7.505 9.01 7 8 C6.95977609 5.6670134 6.95679753 3.33293334 7 1 C4.69 1 2.38 1 0 1 C0 0.67 0 0.34 0 0 Z " fill="#2D2C2A" transform="translate(480,71)"/>
<path d="M0 0 C207.24 0 414.48 0 628 0 C628 69.63 628 139.26 628 211 C625.69 211 623.38 211 621 211 C621 143.68 621 76.36 621 7 C418.38 7 215.76 7 7 7 C7 73.99 7 140.98 7 210 C63.1 210 119.2 210 177 210 C177 210.66 177 211.32 177 212 C118.59 212 60.18 212 0 212 C0 142.04 0 72.08 0 0 Z " fill="#7A7468" transform="translate(6,5)"/>
<path d="M0 0 C28.05 0 56.1 0 85 0 C85 24.09 85 48.18 85 73 C56.95 73 28.9 73 0 73 C-0.268125 63.863125 -0.53625 54.72625 -0.8125 45.3125 C-0.91022705 42.43442627 -1.0079541 39.55635254 -1.10864258 36.59106445 C-1.16429732 34.30685183 -1.21805596 32.02259188 -1.26953125 29.73828125 C-1.31670288 28.55472046 -1.36387451 27.37115967 -1.41247559 26.1517334 C-1.56712828 17.74595724 -1.56712828 17.74595724 1.37231445 13.87963867 C2.23945068 13.25935791 3.10658691 12.63907715 4 12 C5.35555293 10.35135455 6.69631653 8.68996005 8 7 C5.36 5.68 2.72 4.36 0 3 C0 2.01 0 1.02 0 0 Z " fill="#FDFDFD" transform="translate(539,94)"/>
<path d="M0 0 C27.72 0 55.44 0 84 0 C84 23.76 84 47.52 84 72 C56.28 72 28.56 72 0 72 C0.99417234 67.0291383 1.12222412 66.40527327 4.5625 63.3125 C5.74090439 62.24316322 6.89518083 61.1452042 8 60 C8 59.34 8 58.68 8 58 C5.36 56.68 2.72 55.36 0 54 C0 36.18 0 18.36 0 0 Z " fill="#FDFDFD" transform="translate(539,15)"/>
<path d="M0 0 C211.2 0 422.4 0 640 0 C640 159.06 640 318.12 640 482 C428.8 482 217.6 482 0 482 C0 322.94 0 163.88 0 0 Z M3 1 C3 159.4 3 317.8 3 481 C212.22 481 421.44 481 637 481 C637 322.6 637 164.2 637 1 C427.78 1 218.56 1 3 1 Z " fill="#F1F1F1" transform="translate(0,0)"/>
<path d="M0 0 C111.87 0 223.74 0 339 0 C339 0.66 339 1.32 339 2 C339.99 2.33 340.98 2.66 342 3 C342 3.99 342 4.98 342 6 C287.22 6 232.44 6 176 6 C176 70.68 176 135.36 176 202 C241.34 202 306.68 202 374 202 C374 136.99 374 71.98 374 5 C368.06 5 362.12 5 356 5 C356 4.34 356 3.68 356 3 C356.66 3 357.32 3 358 3 C358.33 2.34 358.66 1.68 359 1 C364.94 1.33 370.88 1.66 377 2 C377 68.99 377 135.98 377 205 C309.35 205 241.7 205 172 205 C172 138.34 172 71.68 172 3 C115.24 3 58.48 3 0 3 C0 2.01 0 1.02 0 0 Z " fill="#3A3835" transform="translate(250,265)"/>
<path d="M0 0 C0 3.96 0 7.92 0 12 C5.61 12 11.22 12 17 12 C17.33 12.99 17.66 13.98 18 15 C16.85660156 15.04898437 15.71320313 15.09796875 14.53515625 15.1484375 C13.04424527 15.22345189 11.55336108 15.29900028 10.0625 15.375 C8.93038086 15.42140625 8.93038086 15.42140625 7.77539062 15.46875 C5.84492605 15.5726315 3.92057919 15.77895614 2 16 C1.67 16.66 1.34 17.32 1 18 C0.01 18 -0.98 18 -2 18 C-2 17.34 -2 16.68 -2 16 C-5.96 16 -9.92 16 -14 16 C-14 16.66 -14 17.32 -14 18 C-15.32 17.67 -16.64 17.34 -18 17 C-18 16.34 -18 15.68 -18 15 C-129.87 15 -241.74 15 -357 15 C-357 15.99 -357 16.98 -357 18 C-300.24 18 -243.48 18 -185 18 C-185 84.66 -185 151.32 -185 220 C-252.32 220 -319.64 220 -389 220 C-389 153.34 -389 86.68 -389 18 C-384.71 18 -380.42 18 -376 18 C-375.67 17.34 -375.34 16.68 -375 16 C-374.67 17.32 -374.34 18.64 -374 20 C-377.96 20 -381.92 20 -386 20 C-386 85.01 -386 150.02 -386 217 C-320.66 217 -255.32 217 -188 217 C-188 151.99 -188 86.98 -188 20 C-244.43 20 -300.86 20 -359 20 C-359.495 17.525 -359.495 17.525 -360 15 C-363.96 15 -367.92 15 -372 15 C-372 14.67 -372 14.34 -372 14 C-368.04 14 -364.08 14 -360 14 C-360.33 12.02 -360.66 10.04 -361 8 C-360.34 9.32 -359.68 10.64 -359 12 C-245.48 12 -131.96 12 -15 12 C-14.67 10.35 -14.34 8.7 -14 7 C-13.34 6.67 -12.68 6.34 -12 6 C-12.66 8.64 -13.32 11.28 -14 14 C-10.37 14 -6.74 14 -3 14 C-3 10.04 -3 6.08 -3 2 C-4.98 1.505 -4.98 1.505 -7 1 C-5 0 -5 0 0 0 Z " fill="#131313" transform="translate(607,250)"/>
<path d="M0 0 C67.65 0 135.3 0 205 0 C205 67.32 205 134.64 205 204 C204.67 204 204.34 204 204 204 C204 189.15 204 174.3 204 159 C173.97 159 143.94 159 113 159 C112.9690625 144.7378125 112.9690625 144.7378125 112.9375 130.1875 C112.928396 127.1868042 112.91929199 124.1861084 112.90991211 121.09448242 C112.90699223 118.72314499 112.90444384 116.35180705 112.90234375 113.98046875 C112.89722778 112.74349243 112.89211182 111.50651611 112.88684082 110.23205566 C112.88665955 108.4662616 112.88665955 108.4662616 112.88647461 106.66479492 C112.884254 105.64109299 112.88203339 104.61739105 112.87974548 103.56266785 C113 101 113 101 114 98 C114.22325814 95.94106379 114.40705759 93.87766347 114.5625 91.8125 C114.68818359 90.18248047 114.68818359 90.18248047 114.81640625 88.51953125 C114.87699219 87.68808594 114.93757812 86.85664062 115 86 C113.02 85.505 113.02 85.505 111 85 C110.91921359 82.87561661 110.86090859 80.7503677 110.8125 78.625 C110.77769531 77.44164063 110.74289062 76.25828125 110.70703125 75.0390625 C110.80371094 74.03617187 110.90039062 73.03328125 111 72 C111.99 71.34 112.98 70.68 114 70 C114.58481121 67.11404054 114.58481121 67.11404054 114.6875 63.875 C114.75324219 62.77929688 114.81898438 61.68359375 114.88671875 60.5546875 C114.92410156 59.71164063 114.96148438 58.86859375 115 58 C113.68 58 112.36 58 111 58 C111 39.85 111 21.7 111 3 C75.36 3 39.72 3 3 3 C3 21.48 3 39.96 3 59 C4.98 59 6.96 59 9 59 C9 59.33 9 59.66 9 60 C7.35 60 5.7 60 4 60 C4.66 61.98 5.32 63.96 6 66 C5.01 66.495 5.01 66.495 4 67 C22.48 67 40.96 67 60 67 C60 67.33 60 67.66 60 68 C52.61994209 68.02316561 45.23989201 68.04093664 37.85980511 68.05181217 C34.43297225 68.05703175 31.00616425 68.06411265 27.5793457 68.07543945 C23.64013974 68.08837846 19.70094387 68.09323586 15.76171875 68.09765625 C13.9147364 68.10539818 13.9147364 68.10539818 12.03044128 68.11329651 C10.88948502 68.11337204 9.74852875 68.11344757 8.57299805 68.11352539 C7.567061 68.115746 6.56112396 68.11796661 5.52470398 68.12025452 C3 68 3 68 0 67 C0 44.89 0 22.78 0 0 Z M117 3 C117 20.82 117 38.64 117 57 C120.96 58.98 120.96 58.98 125 61 C123.04071131 64.91857739 121.41416393 66.64494659 118.2421875 69.4375 C116.58512958 71.18916538 116.58512958 71.18916538 117 75 C144.72 75 172.44 75 201 75 C201 51.24 201 27.48 201 3 C173.28 3 145.56 3 117 3 Z M117 82 C117 82.99 117 83.98 117 85 C120.96 86.98 120.96 86.98 125 89 C124.06558465 90.27310312 123.12732889 91.543388 122.1875 92.8125 C121.66542969 93.52019531 121.14335938 94.22789063 120.60546875 94.95703125 C119 97 119 97 117.41520691 98.29084778 C115.42239345 100.69757823 115.67333049 102.29503859 115.7512207 105.3894043 C115.77188599 106.50569214 115.79255127 107.62197998 115.81384277 108.77209473 C115.85078247 109.94429565 115.88772217 111.11649658 115.92578125 112.32421875 C115.94846069 113.40239868 115.97114014 114.48057861 115.99450684 115.59143066 C116.08382066 119.62385784 116.19977156 123.65565945 116.3125 127.6875 C116.539375 136.700625 116.76625 145.71375 117 155 C145.05 155 173.1 155 202 155 C202 130.91 202 106.82 202 82 C173.95 82 145.9 82 117 82 Z " fill="#222221" transform="translate(422,12)"/>
<path d="M0 0 C20.79 0 41.58 0 63 0 C63 14.19 63 28.38 63 43 C42.21 43 21.42 43 0 43 C-0.68008192 38.91950847 -1.12771105 35.65233447 -1.1328125 31.62109375 C-1.13410156 30.61626953 -1.13539063 29.61144531 -1.13671875 28.57617188 C-1.13091797 27.0225293 -1.13091797 27.0225293 -1.125 25.4375 C-1.12886719 24.42880859 -1.13273437 23.42011719 -1.13671875 22.38085938 C-1.12711774 14.82966463 -0.58282525 7.57672827 0 0 Z " fill="#4D4D4D" transform="translate(424,146)"/>
<path d="M0 0 C67.32 0 134.64 0 204 0 C204 66.66 204 133.32 204 202 C199.38 202 194.76 202 190 202 C189.67 202.99 189.34 203.98 189 205 C188.01 202.525 188.01 202.525 187 200 C191.62 200 196.24 200 201 200 C201 134.99 201 69.98 201 3 C135.66 3 70.32 3 3 3 C3 68.01 3 133.02 3 200 C59.1 200 115.2 200 173 200 C173 201.98 173 203.96 173 206 C172.34 206 171.68 206 171 206 C170.67 205.34 170.34 204.68 170 204 C113.9 203.67 57.8 203.34 0 203 C0 136.01 0 69.02 0 0 Z " fill="#1F1E1E" transform="translate(13,12)"/>
<path d="M0 0 C0.66 0 1.32 0 2 0 C2 36.63 2 73.26 2 111 C-8.35375 111.020625 -18.7075 111.04125 -29.375 111.0625 C-32.64583496 111.071604 -35.91666992 111.08070801 -39.28662109 111.09008789 C-41.86555948 111.09300721 -44.44449832 111.09555573 -47.0234375 111.09765625 C-48.03200302 111.10157631 -48.03200302 111.10157631 -49.0609436 111.10557556 C-51.0371994 111.11287371 -53.01347683 111.11333863 -54.98974609 111.11352539 C-56.66186661 111.11685631 -56.66186661 111.11685631 -58.36776733 111.12025452 C-61 111 -61 111 -63 110 C-64.49263965 104.34862219 -64.11114417 98.42488168 -64.0625 92.625 C-64.05798828 91.60277344 -64.05347656 90.58054687 -64.04882812 89.52734375 C-64.037103 87.01816806 -64.02069176 84.5091151 -64 82 C-63.67 82 -63.34 82 -63 82 C-63 83.98 -63 85.96 -63 88 C-42.21 88 -21.42 88 0 88 C0 81.07 0 74.14 0 67 C-20.79 67 -41.58 67 -63 67 C-63 66.67 -63 66.34 -63 66 C-42.21 66 -21.42 66 0 66 C0 59.07 0 52.14 0 45 C-10.56 45 -21.12 45 -32 45 C-32 42.69 -32 40.38 -32 38 C-42.56 38 -53.12 38 -64 38 C-64 33.38 -64 28.76 -64 24 C-63.67 24 -63.34 24 -63 24 C-63 28.29 -63 32.58 -63 37 C-42.21 37 -21.42 37 0 37 C0 30.07 0 23.14 0 16 C-20.79 16 -41.58 16 -63 16 C-63 15.67 -63 15.34 -63 15 C-42.21 15 -21.42 15 0 15 C0 10.05 0 5.1 0 0 Z " fill="#353535" transform="translate(487,101)"/>
<path d="M0 0 C0.66 0 1.32 0 2 0 C2 159.06 2 318.12 2 482 C1.01 482 0.02 482 -1 482 C-1.13140876 453.30266428 -1.26184021 424.60532426 -1.39115143 395.90797901 C-1.40318077 393.23935253 -1.41521146 390.57072606 -1.42724609 387.90209961 C-1.43023671 387.23891677 -1.43322732 386.57573393 -1.43630856 385.89245465 C-1.4813757 375.90217814 -1.5269316 365.91190394 -1.57275391 355.92163086 C-1.62612374 344.28565312 -1.67888839 332.64967281 -1.73096704 321.01368922 C-1.75848642 314.86948902 -1.78628109 308.72529037 -1.81480408 302.58109474 C-2.02185667 257.89054674 -2.00050627 213.2062354 -1.81640625 168.515625 C-1.80911314 166.7393241 -1.80911314 166.7393241 -1.8016727 164.92713833 C-1.75563853 153.73501746 -1.70894654 142.54289951 -1.66066074 131.35078812 C-1.59938624 117.13747496 -1.54151234 102.92415645 -1.48800808 88.71081185 C-1.44983421 78.6430266 -1.4078975 68.5752613 -1.36312145 58.50750327 C-1.33657662 52.51591601 -1.31171665 46.5243327 -1.29092598 40.53272247 C-1.2714252 34.93451296 -1.24730228 29.33634302 -1.21950912 23.73816872 C-1.21011951 21.6809415 -1.20245117 19.62370565 -1.19658089 17.56646538 C-1.18835629 14.77272112 -1.17409242 11.97907343 -1.15821838 9.18536377 C-1.15724028 8.36139736 -1.15626217 7.53743096 -1.15525442 6.68849587 C-1.11412903 1.11412903 -1.11412903 1.11412903 0 0 Z " fill="#E9E9E9" transform="translate(638,0)"/>
<path d="M0 0 C20.13 0 40.26 0 61 0 C61 6.93 61 13.86 61 21 C40.21 21 19.42 21 -2 21 C-2 16.38 -2 11.76 -2 7 C-1.34 7 -0.68 7 0 7 C0 4.69 0 2.38 0 0 Z " fill="#818181" transform="translate(426,117)"/>
<path d="M0 0 C0.33 0 0.66 0 1 0 C1 1.98 1 3.96 1 6 C1.66 6 2.32 6 3 6 C3 8.97 3 11.94 3 15 C-55.74 15 -114.48 15 -175 15 C-174.34 13.02 -173.68 11.04 -173 9 C-116.24 9 -59.48 9 -1 9 C-0.67 6.03 -0.34 3.06 0 0 Z " fill="#252525" transform="translate(423,205)"/>
<path d="M0 0 C20.79 0 41.58 0 63 0 C63 4.62 63 9.24 63 14 C42.21 14 21.42 14 0 14 C0 9.38 0 4.76 0 0 Z " fill="#919191" transform="translate(424,197)"/>
<path d="M0 0 C20.13 0 40.26 0 61 0 C61 4.62 61 9.24 61 14 C40.87 14 20.74 14 0 14 C0 9.38 0 4.76 0 0 Z " fill="#939393" transform="translate(426,146)"/>
<path d="M0 0 C0.33 0 0.66 0 1 0 C1 66.66 1 133.32 1 202 C6.28 202 11.56 202 17 202 C17 202.66 17 203.32 17 204 C20.96 204 24.92 204 29 204 C29 208 29 208 27.609375 209.95703125 C26.68898437 210.87548828 26.68898437 210.87548828 25.75 211.8125 C25.14671875 212.43769531 24.5434375 213.06289062 23.921875 213.70703125 C22 215 22 215 19.890625 215.07421875 C18 214 18 214 16 208 C5.44 208 -5.12 208 -16 208 C-16 211.96 -16 215.92 -16 220 C-18.31 219.67 -20.62 219.34 -23 219 C-21.68 218.67 -20.36 218.34 -19 218 C-19 214.04 -19 210.08 -19 206 C-22.63 206 -26.26 206 -30 206 C-30 207.65 -30 209.3 -30 211 C-30.33 210.01 -30.66 209.02 -31 208 C-87.43 208 -143.86 208 -202 208 C-202 207.67 -202 207.34 -202 207 C-145.57 207 -89.14 207 -31 207 C-31 206.01 -31 205.02 -31 204 C-26.71 204 -22.42 204 -18 204 C-18 203.34 -18 202.68 -18 202 C-17.34 202 -16.68 202 -16 202 C-15.67 202.66 -15.34 203.32 -15 204 C-14.67 203.34 -14.34 202.68 -14 202 C-9.38 202 -4.76 202 0 202 C0 135.34 0 68.68 0 0 Z " fill="#3A3A3A" transform="translate(217,12)"/>
<path d="M0 0 C1.32 0 2.64 0 4 0 C4 3.96 4 7.92 4 12 C14.56 12 25.12 12 36 12 C36 8.04 36 4.08 36 0 C41.86892562 0.35213554 45.04629841 1.57561965 49 6 C49.77991124 8.7707373 49.90130193 11.08840687 50 14 C44.06 14.495 44.06 14.495 38 15 C37.67 15.99 37.34 16.98 37 18 C31.72 18 26.44 18 21 18 C21 84.66 21 151.32 21 220 C20.67 220 20.34 220 20 220 C20 153.34 20 86.68 20 18 C15.38 18 10.76 18 6 18 C5.67 18 5.34 18 5 18 C4.34 18.33 3.68 18.66 3 19 C3 17.68 3 16.36 3 15 C-1.29 15 -5.58 15 -10 15 C-10 14.67 -10 14.34 -10 14 C-6.37 14 -2.74 14 1 14 C0.67 9.38 0.34 4.76 0 0 Z " fill="#1E1E1E" transform="translate(197,250)"/>
<path d="M0 0 C0.66 0 1.32 0 2 0 C2.04634244 8.92738241 2.08187889 17.8547234 2.10362434 26.78219986 C2.11406111 30.92759704 2.12821835 35.07291191 2.15087891 39.21826172 C2.17261111 43.21882689 2.18456943 47.21931291 2.18975449 51.21993256 C2.19344956 52.74615475 2.20066511 54.27237261 2.21146011 55.7985611 C2.22598018 57.93644064 2.22797775 60.07399314 2.22705078 62.21191406 C2.231492 63.4288092 2.23593323 64.64570435 2.24050903 65.8994751 C2.01117855 68.85589163 1.55421583 70.51569885 0 73 C0 71.02 0 69.04 0 67 C-20.79 67 -41.58 67 -63 67 C-63 66.67 -63 66.34 -63 66 C-42.21 66 -21.42 66 0 66 C0 59.07 0 52.14 0 45 C-10.56 45 -21.12 45 -32 45 C-32 42.69 -32 40.38 -32 38 C-42.56 38 -53.12 38 -64 38 C-64 33.38 -64 28.76 -64 24 C-63.67 24 -63.34 24 -63 24 C-63 28.29 -63 32.58 -63 37 C-42.21 37 -21.42 37 0 37 C0 30.07 0 23.14 0 16 C-20.79 16 -41.58 16 -63 16 C-63 15.67 -63 15.34 -63 15 C-42.21 15 -21.42 15 0 15 C0 10.05 0 5.1 0 0 Z " fill="#1F1F1F" transform="translate(487,101)"/>
<path d="M0 0 C56.76 0 113.52 0 172 0 C172 0.99 172 1.98 172 3 C115.24 3 58.48 3 0 3 C0 2.01 0 1.02 0 0 Z " fill="#605B52" transform="translate(250,214)"/>
<path d="M0 0 C2.97 0 5.94 0 9 0 C9 13.86 9 27.72 9 42 C6.03 42 3.06 42 0 42 C0 28.14 0 14.28 0 0 Z " fill="#FFFFFF" transform="translate(5,220)"/>
<path d="M0 0 C2.97 0 5.94 0 9 0 C9.02477057 5.17781223 9.04289347 10.35558975 9.05493164 15.53344727 C9.0599517 17.29387005 9.0667691 19.05428868 9.07543945 20.81469727 C9.08760703 23.34913154 9.09325166 25.88351054 9.09765625 28.41796875 C9.10281754 29.20149216 9.10797882 29.98501556 9.11329651 30.7922821 C9.11369066 34.65591139 8.9444276 38.245165 8 42 C5.36 42 2.72 42 0 42 C0 28.14 0 14.28 0 0 Z " fill="#FFFFFF" transform="translate(626,220)"/>
<path d="M0 0 C20.13 0 40.26 0 61 0 C61 1.98 61 3.96 61 6 C40.87 6 20.74 6 0 6 C0 4.02 0 2.04 0 0 Z " fill="#FAFAFA" transform="translate(426,81)"/>
<path d="M0 0 C9.24 0 18.48 0 28 0 C28 0.99 28 1.98 28 3 C23.71 3 19.42 3 15 3 C15 69.66 15 136.32 15 205 C14.67 205 14.34 205 14 205 C14 138.34 14 71.68 14 3 C9.38 3 4.76 3 0 3 C0 2.01 0 1.02 0 0 Z " fill="#4B4841" transform="translate(203,265)"/>
<path d="M0 0 C0.33 0 0.66 0 1 0 C1 66.66 1 133.32 1 202 C5.29 202 9.58 202 14 202 C14 202.99 14 203.98 14 205 C4.76 205 -4.48 205 -14 205 C-14 204.01 -14 203.02 -14 202 C-9.38 202 -4.76 202 0 202 C0 135.34 0 68.68 0 0 Z " fill="#49453F" transform="translate(217,12)"/>
<path d="M0 0 C9.9 0 19.8 0 30 0 C30 1.98 30 3.96 30 6 C20.1 6 10.2 6 0 6 C0 4.02 0 2.04 0 0 Z " fill="#FBFBFB" transform="translate(457,190)"/>
<path d="M0 0 C9.9 0 19.8 0 30 0 C30 1.98 30 3.96 30 6 C20.1 6 10.2 6 0 6 C0 4.02 0 2.04 0 0 Z " fill="#FBFBFB" transform="translate(457,161)"/>
<path d="M0 0 C9.9 0 19.8 0 30 0 C30 1.98 30 3.96 30 6 C20.1 6 10.2 6 0 6 C0 4.02 0 2.04 0 0 Z " fill="#FBFBFB" transform="translate(457,139)"/>
<path d="M0 0 C9.9 0 19.8 0 30 0 C30 1.98 30 3.96 30 6 C20.1 6 10.2 6 0 6 C0 4.02 0 2.04 0 0 Z " fill="#F9F9F9" transform="translate(457,117)"/>
<path d="M0 0 C9.9 0 19.8 0 30 0 C30 1.98 30 3.96 30 6 C20.1 6 10.2 6 0 6 C0 4.02 0 2.04 0 0 Z " fill="#FBFBFB" transform="translate(457,110)"/>
<path d="M0 0 C9.9 0 19.8 0 30 0 C30 1.98 30 3.96 30 6 C20.1 6 10.2 6 0 6 C0 4.02 0 2.04 0 0 Z " fill="#FBFBFB" transform="translate(457,88)"/>
<path d="M0 0 C9.57 0 19.14 0 29 0 C29 1.98 29 3.96 29 6 C19.43 6 9.86 6 0 6 C0 4.02 0 2.04 0 0 Z " fill="#F9F9F9" transform="translate(457,197)"/>
<path d="M0 0 C9.57 0 19.14 0 29 0 C29 1.98 29 3.96 29 6 C19.43 6 9.86 6 0 6 C0 4.02 0 2.04 0 0 Z " fill="#F9F9F9" transform="translate(426,197)"/>
<path d="M0 0 C9.57 0 19.14 0 29 0 C29 1.98 29 3.96 29 6 C19.43 6 9.86 6 0 6 C0 4.02 0 2.04 0 0 Z " fill="#FFFFFF" transform="translate(426,190)"/>
<path d="M0 0 C9.57 0 19.14 0 29 0 C29 1.98 29 3.96 29 6 C19.43 6 9.86 6 0 6 C0 4.02 0 2.04 0 0 Z " fill="#F9F9F9" transform="translate(457,183)"/>
<path d="M0 0 C9.57 0 19.14 0 29 0 C29 1.98 29 3.96 29 6 C19.43 6 9.86 6 0 6 C0 4.02 0 2.04 0 0 Z " fill="#F9F9F9" transform="translate(426,183)"/>
<path d="M0 0 C9.57 0 19.14 0 29 0 C29 1.98 29 3.96 29 6 C19.43 6 9.86 6 0 6 C0 4.02 0 2.04 0 0 Z " fill="#F2F2F2" transform="translate(457,175)"/>
<path d="M0 0 C9.57 0 19.14 0 29 0 C29 1.98 29 3.96 29 6 C19.43 6 9.86 6 0 6 C0 4.02 0 2.04 0 0 Z " fill="#F2F2F2" transform="translate(426,175)"/>
<path d="M0 0 C9.57 0 19.14 0 29 0 C29 1.98 29 3.96 29 6 C19.43 6 9.86 6 0 6 C0 4.02 0 2.04 0 0 Z " fill="#FEFEFE" transform="translate(457,168)"/>
<path d="M0 0 C9.57 0 19.14 0 29 0 C29 1.98 29 3.96 29 6 C19.43 6 9.86 6 0 6 C0 4.02 0 2.04 0 0 Z " fill="#FEFEFE" transform="translate(426,168)"/>
<path d="M0 0 C9.57 0 19.14 0 29 0 C29 1.98 29 3.96 29 6 C19.43 6 9.86 6 0 6 C0 4.02 0 2.04 0 0 Z " fill="#FFFFFF" transform="translate(426,161)"/>
<path d="M0 0 C9.57 0 19.14 0 29 0 C29 1.98 29 3.96 29 6 C19.43 6 9.86 6 0 6 C0 4.02 0 2.04 0 0 Z " fill="#F7F7F7" transform="translate(457,146)"/>
<path d="M0 0 C9.57 0 19.14 0 29 0 C29 1.98 29 3.96 29 6 C19.43 6 9.86 6 0 6 C0 4.02 0 2.04 0 0 Z " fill="#F7F7F7" transform="translate(426,146)"/>
<path d="M0 0 C9.57 0 19.14 0 29 0 C29 1.98 29 3.96 29 6 C19.43 6 9.86 6 0 6 C0 4.02 0 2.04 0 0 Z " fill="#FFFFFF" transform="translate(426,139)"/>
<path d="M0 0 C9.57 0 19.14 0 29 0 C29 1.98 29 3.96 29 6 C19.43 6 9.86 6 0 6 C0 4.02 0 2.04 0 0 Z " fill="#FAFAFA" transform="translate(457,132)"/>
<path d="M0 0 C9.57 0 19.14 0 29 0 C29 1.98 29 3.96 29 6 C19.43 6 9.86 6 0 6 C0 4.02 0 2.04 0 0 Z " fill="#FAFAFA" transform="translate(426,132)"/>
<path d="M0 0 C9.57 0 19.14 0 29 0 C29 1.98 29 3.96 29 6 C19.43 6 9.86 6 0 6 C0 4.02 0 2.04 0 0 Z " fill="#FCFCFC" transform="translate(426,117)"/>
<path d="M0 0 C9.57 0 19.14 0 29 0 C29 1.98 29 3.96 29 6 C19.43 6 9.86 6 0 6 C0 4.02 0 2.04 0 0 Z " fill="#FFFFFE" transform="translate(426,110)"/>
<path d="M0 0 C9.57 0 19.14 0 29 0 C29 1.98 29 3.96 29 6 C19.43 6 9.86 6 0 6 C0 4.02 0 2.04 0 0 Z " fill="#F5F5F5" transform="translate(457,103)"/>
<path d="M0 0 C9.57 0 19.14 0 29 0 C29 1.98 29 3.96 29 6 C19.43 6 9.86 6 0 6 C0 4.02 0 2.04 0 0 Z " fill="#F5F5F5" transform="translate(426,103)"/>
<path d="M0 0 C9.57 0 19.14 0 29 0 C29 1.98 29 3.96 29 6 C19.43 6 9.86 6 0 6 C0 4.02 0 2.04 0 0 Z " fill="#F6F6F6" transform="translate(457,95)"/>
<path d="M0 0 C9.57 0 19.14 0 29 0 C29 1.98 29 3.96 29 6 C19.43 6 9.86 6 0 6 C0 4.02 0 2.04 0 0 Z " fill="#F6F6F6" transform="translate(426,95)"/>
<path d="M0 0 C9.57 0 19.14 0 29 0 C29 1.98 29 3.96 29 6 C19.43 6 9.86 6 0 6 C0 4.02 0 2.04 0 0 Z " fill="#FFFFFF" transform="translate(426,88)"/>
<path d="M0 0 C0.66 0 1.32 0 2 0 C2 1.98 2 3.96 2 6 C12.56 6 23.12 6 34 6 C34.04125 10.0425 34.0825 14.085 34.125 18.25 C34.14320801 19.51875977 34.16141602 20.78751953 34.18017578 22.09472656 C34.1851709 23.09987305 34.19016602 24.10501953 34.1953125 25.140625 C34.20578613 26.16704102 34.21625977 27.19345703 34.22705078 28.25097656 C33.99836111 31.01984288 33.4243299 32.64418792 32 35 C32 33.02 32 31.04 32 29 C11.21 29 -9.58 29 -31 29 C-31 28.67 -31 28.34 -31 28 C-10.21 28 10.58 28 32 28 C32 21.07 32 14.14 32 7 C21.44 7 10.88 7 0 7 C0 4.69 0 2.38 0 0 Z " fill="#252525" transform="translate(455,139)"/>
<path d="M0 0 C0.66 0 1.32 0 2 0 C2 1.98 2 3.96 2 6 C11.57 6 21.14 6 31 6 C31 4.02 31 2.04 31 0 C31.33 0 31.66 0 32 0 C32 4.62 32 9.24 32 14 C31.67 14 31.34 14 31 14 C31 12.02 31 10.04 31 8 C21.43 8 11.86 8 2 8 C2 9.98 2 11.96 2 14 C1.34 14 0.68 14 0 14 C0 12.02 0 10.04 0 8 C-9.57 8 -19.14 8 -29 8 C-29 7.34 -29 6.68 -29 6 C-19.43 6 -9.86 6 0 6 C0 4.02 0 2.04 0 0 Z " fill="#7F7F7F" transform="translate(455,95)"/>
<path d="M0 0 C0 3.96 0 7.92 0 12 C5.61 12 11.22 12 17 12 C17.495 13.485 17.495 13.485 18 15 C16.85660156 15.04898437 15.71320312 15.09796875 14.53515625 15.1484375 C13.04424527 15.22345189 11.55336108 15.29900028 10.0625 15.375 C8.93038086 15.42140625 8.93038086 15.42140625 7.77539062 15.46875 C5.84492605 15.5726315 3.92057919 15.77895614 2 16 C1.67 16.66 1.34 17.32 1 18 C0.01 18 -0.98 18 -2 18 C-2 17.34 -2 16.68 -2 16 C-5.96 16 -9.92 16 -14 16 C-14.33 16.66 -14.66 17.32 -15 18 C-15.08131463 16.56344146 -15.13933559 15.1255517 -15.1875 13.6875 C-15.22230469 12.88699219 -15.25710938 12.08648437 -15.29296875 11.26171875 C-14.93801608 8.52148416 -14.10633718 7.70828921 -12 6 C-12.66 8.64 -13.32 11.28 -14 14 C-10.37 14 -6.74 14 -3 14 C-3 10.04 -3 6.08 -3 2 C-4.32 1.67 -5.64 1.34 -7 1 C-5 0 -5 0 0 0 Z " fill="#414141" transform="translate(607,250)"/>
<path d="M0 0 C0.66 0 1.32 0 2 0 C2 4.62 2 9.24 2 14 C22.13 14 42.26 14 63 14 C63 14.33 63 14.66 63 15 C53.1 15 43.2 15 33 15 C33 16.98 33 18.96 33 21 C32.34 21 31.68 21 31 21 C31 19.02 31 17.04 31 15 C21.43 15 11.86 15 2 15 C2 19.62 2 24.24 2 29 C1.01 29.33 0.02 29.66 -1 30 C-1.19148936 9.46808511 -1.19148936 9.46808511 0 0 Z " fill="#474747" transform="translate(424,95)"/>
<path d="M0 0 C9.57 0 19.14 0 29 0 C29 1.65 29 3.3 29 5 C19.43 5 9.86 5 0 5 C0 3.35 0 1.7 0 0 Z " fill="#FFFFFF" transform="translate(457,205)"/>
<path d="M0 0 C9.57 0 19.14 0 29 0 C29 1.65 29 3.3 29 5 C19.43 5 9.86 5 0 5 C0 3.35 0 1.7 0 0 Z " fill="#FFFFFF" transform="translate(426,205)"/>
<path d="M0 0 C9.57 0 19.14 0 29 0 C29 1.65 29 3.3 29 5 C19.43 5 9.86 5 0 5 C0 3.35 0 1.7 0 0 Z " fill="#FFFFFF" transform="translate(457,154)"/>
<path d="M0 0 C9.57 0 19.14 0 29 0 C29 1.65 29 3.3 29 5 C19.43 5 9.86 5 0 5 C0 3.35 0 1.7 0 0 Z " fill="#FFFFFF" transform="translate(426,154)"/>
<path d="M0 0 C9.57 0 19.14 0 29 0 C29 1.65 29 3.3 29 5 C19.43 5 9.86 5 0 5 C0 3.35 0 1.7 0 0 Z " fill="#FEFFFF" transform="translate(457,125)"/>
<path d="M0 0 C9.57 0 19.14 0 29 0 C29 1.65 29 3.3 29 5 C19.43 5 9.86 5 0 5 C0 3.35 0 1.7 0 0 Z " fill="#FFFFFF" transform="translate(426,125)"/>
<path d="M0 0 C9.24 0 18.48 0 28 0 C28 1.65 28 3.3 28 5 C19.09 5 10.18 5 1 5 C0.67 3.35 0.34 1.7 0 0 Z " fill="#FEFEFE" transform="translate(458,81)"/>
<path d="M0 0 C0.66 0 1.32 0 2 0 C2 1.65 2 3.3 2 5 C11.57 5 21.14 5 31 5 C31 3.35 31 1.7 31 0 C31.33 0 31.66 0 32 0 C32 4.29 32 8.58 32 13 C31.67 13 31.34 13 31 13 C31 11.02 31 9.04 31 7 C21.43 7 11.86 7 2 7 C2 8.98 2 10.96 2 13 C1.34 13 0.68 13 0 13 C0 10.69 0 8.38 0 6 C-9.57 6 -19.14 6 -29 6 C-29 5.67 -29 5.34 -29 5 C-19.43 5 -9.86 5 0 5 C0 3.35 0 1.7 0 0 Z " fill="#838383" transform="translate(455,176)"/>
<path d="M0 0 C0.66 0.33 1.32 0.66 2 1 C2 5.29 2 9.58 2 14 C-1.63 14 -5.26 14 -9 14 C-9.71660708 8.02827429 -9.71660708 8.02827429 -7.76953125 5.234375 C-5.22018678 2.64096779 -3.50046701 1.16682234 0 0 Z " fill="#E5E5E5" transform="translate(196,250)"/>
<path d="M0 0 C3.63 0 7.26 0 11 0 C11 3.96 11 7.92 11 12 C5 12 5 12 2.125 9.9375 C-0.47048413 6.34962488 -0.4247346 4.3322929 0 0 Z " fill="#EAEAEA" transform="translate(187,218)"/>
<path d="M0 0 C3.84108078 0.26798238 5.736021 0.794683 8.8125 3.1875 C11.205317 6.263979 11.73201762 8.15891922 12 12 C8.04 12 4.08 12 0 12 C0 8.04 0 4.08 0 0 Z " fill="#F4F4F4" transform="translate(235,252)"/>
<path d="M0 0 C1.98 0 3.96 0 6 0 C6 3.96 6 7.92 6 12 C2.37 12 -1.26 12 -5 12 C-4.4550102 7.31308775 -3.42897592 3.42897592 0 0 Z " fill="#F0F0F0" transform="translate(598,252)"/>
<path d="M0 0 C2.97 0 5.94 0 9 0 C9 9.9 9 19.8 9 30 C8.34 30 7.68 30 7 30 C7 28.02 7 26.04 7 24 C-3.56 24 -14.12 24 -25 24 C-25 21.69 -25 19.38 -25 17 C-24.34 17 -23.68 17 -23 17 C-23 18.98 -23 20.96 -23 23 C-13.1 23 -3.2 23 7 23 C7 15.74 7 8.48 7 1 C4.69 1 2.38 1 0 1 C0 0.67 0 0.34 0 0 Z " fill="#4A4A4A" transform="translate(480,71)"/>
<path d="M0 0 C0.66 0 1.32 0 2 0 C2 1.98 2 3.96 2 6 C11.9 6 21.8 6 32 6 C32 6.66 32 7.32 32 8 C11.63533811 8.13045265 -8.65125647 7.86708155 -29 7 C-29 6.67 -29 6.34 -29 6 C-19.43 6 -9.86 6 0 6 C0 4.02 0 2.04 0 0 Z " fill="#707070" transform="translate(455,117)"/>
<path d="M0 0 C0.66 0 1.32 0 2 0 C2 0.99 2 1.98 2 3 C31.37 3 60.74 3 91 3 C91 3.33 91 3.66 91 4 C61.63 4 32.26 4 2 4 C2 5.32 2 6.64 2 8 C1.34 8 0.68 8 0 8 C0 5.36 0 2.72 0 0 Z " fill="#2A2926" transform="translate(535,87)"/>
<path d="M0 0 C3.96 0 7.92 0 12 0 C12 4 12 4 10.609375 5.95703125 C9.99578125 6.56933594 9.3821875 7.18164062 8.75 7.8125 C8.14671875 8.43769531 7.5434375 9.06289062 6.921875 9.70703125 C5 11 5 11 2.84765625 10.83984375 C1 10 1 10 -0.3125 7.75 C-1 5 -1 5 0 0 Z " fill="#595959" transform="translate(234,216)"/>
<path d="M0 0 C0.33 0 0.66 0 1 0 C2.32594359 5.96674616 2.0884587 11.92583615 2 18 C-0.31 17.67 -2.62 17.34 -5 17 C-3.68 16.67 -2.36 16.34 -1 16 C-1 12.04 -1 8.08 -1 4 C-4.63 4 -8.26 4 -12 4 C-12 5.65 -12 7.3 -12 9 C-12.33 9 -12.66 9 -13 9 C-13 6.69 -13 4.38 -13 2 C-8.71 2 -4.42 2 0 2 C0 1.34 0 0.68 0 0 Z " fill="#616161" transform="translate(199,214)"/>
<path d="M0 0 C1.65 0.33 3.3 0.66 5 1 C5 2.32 5 3.64 5 5 C13.91 5 22.82 5 32 5 C32 3.35 32 1.7 32 0 C32.33 0 32.66 0 33 0 C33 1.98 33 3.96 33 6 C22.44 6 11.88 6 1 6 C0.34 4.68 -0.32 3.36 -1 2 C-0.67 1.34 -0.34 0.68 0 0 Z " fill="#E1E1E1" transform="translate(454,81)"/>
<path d="M0 0 C0.66 0 1.32 0 2 0 C2 1.98 2 3.96 2 6 C11.57 6 21.14 6 31 6 C31 6.33 31 6.66 31 7 C21.43 7 11.86 7 2 7 C2 9.31 2 11.62 2 14 C1.34 14 0.68 14 0 14 C0 9.38 0 4.76 0 0 Z " fill="#656565" transform="translate(424,197)"/>
<path d="M0 0 C0.66 0 1.32 0 2 0 C2 2.31 2 4.62 2 7 C11.57 7 21.14 7 31 7 C31 7.33 31 7.66 31 8 C21.43 8 11.86 8 2 8 C2 9.98 2 11.96 2 14 C1.34 14 0.68 14 0 14 C0 9.38 0 4.76 0 0 Z " fill="#656565" transform="translate(424,175)"/>
<path d="M0 0 C0.66 0 1.32 0 2 0 C2 1.98 2 3.96 2 6 C11.57 6 21.14 6 31 6 C31 6.33 31 6.66 31 7 C21.43 7 11.86 7 2 7 C2 9.31 2 11.62 2 14 C1.34 14 0.68 14 0 14 C0 9.38 0 4.76 0 0 Z " fill="#696969" transform="translate(424,146)"/>
<path d="M0 0 C1.32 0 2.64 0 4 0 C4.02703381 1.93742341 4.04641125 3.87495479 4.0625 5.8125 C4.07410156 6.89144531 4.08570313 7.97039062 4.09765625 9.08203125 C4 12 4 12 3 15 C-1.29 15 -5.58 15 -10 15 C-10 14.67 -10 14.34 -10 14 C-6.37 14 -2.74 14 1 14 C0.67 9.38 0.34 4.76 0 0 Z " fill="#535353" transform="translate(197,250)"/>
<path d="M0 0 C2.97 0.495 2.97 0.495 6 1 C6 5 6 5 4.6875 6.484375 C3.125 7.65625 1.5625 8.828125 0 10 C0 6.7 0 3.4 0 0 Z " fill="#F5F5F5" transform="translate(538,98)"/>
<path d="M0 0 C2.31 0.66 4.62 1.32 7 2 C5.50902342 5.7952131 3.24299151 7.61042731 0 10 C0 6.7 0 3.4 0 0 Z " fill="#F4F4F4" transform="translate(538,70)"/>
<path d="M0 0 C0 0.99 0 1.98 0 3 C0.99 3.33 1.98 3.66 3 4 C3 4.66 3 5.32 3 6 C-6.57 6 -16.14 6 -26 6 C-26 5.67 -26 5.34 -26 5 C-25.31897217 4.9906543 -24.63794434 4.98130859 -23.9362793 4.97167969 C-20.85261353 4.91801869 -17.77047206 4.83436449 -14.6875 4.75 C-13.61564453 4.73582031 -12.54378906 4.72164063 -11.43945312 4.70703125 C-9.89741211 4.65869141 -9.89741211 4.65869141 -8.32421875 4.609375 C-7.37635498 4.58842773 -6.42849121 4.56748047 -5.4519043 4.54589844 C-2.83403151 4.21202196 -2.83403151 4.21202196 -1.16723633 1.96191406 C-0.78204834 1.31448242 -0.39686035 0.66705078 0 0 Z " fill="#1A1A1A" transform="translate(485,75)"/>
<path d="M0 0 C0.99 0.33 1.98 0.66 3 1 C1.59155282 4.21524305 -0.10344786 6.32183868 -2.625 8.75 C-3.57246094 9.67039062 -3.57246094 9.67039062 -4.5390625 10.609375 C-5.02117188 11.06828125 -5.50328125 11.5271875 -6 12 C-6.71484375 10.265625 -6.71484375 10.265625 -7 8 C-5.56640625 5.859375 -5.56640625 5.859375 -3.5625 3.75 C-2.57443359 2.69039063 -2.57443359 2.69039063 -1.56640625 1.609375 C-1.04949219 1.07828125 -0.53257812 0.5471875 0 0 Z " fill="#4D4D4D" transform="translate(545,72)"/>
<path d="M0 0 C0.99 0 1.98 0 3 0 C3 3.96 3 7.92 3 12 C2.01 12.33 1.02 12.66 0 13 C0 8.71 0 4.42 0 0 Z " fill="#EDECEB" transform="translate(534,98)"/>
<path d="M0 0 C0.99 0 1.98 0 3 0 C3 3.96 3 7.92 3 12 C2.01 12.33 1.02 12.66 0 13 C0 8.71 0 4.42 0 0 Z " fill="#E9E9E8" transform="translate(534,70)"/>
<path d="M0 0 C0.99 0 1.98 0 3 0 C3 4.29 3 8.58 3 13 C2.34 13 1.68 13 1 13 C-0.32229189 10.35541621 -0.09677194 8.32238699 -0.0625 5.375 C-0.05347656 4.37210937 -0.04445313 3.36921875 -0.03515625 2.3359375 C-0.02355469 1.56507812 -0.01195312 0.79421875 0 0 Z " fill="#494949" transform="translate(423,81)"/>
<path d="M0 0 C2.97 0 5.94 0 9 0 C7.02 2.31 5.04 4.62 3 7 C0 3.375 0 3.375 0 0 Z " fill="#FAFAFA" transform="translate(234,218)"/>
<path d="M0 0 C1.32 0.66 2.64 1.32 4 2 C3.07456291 3.34173403 2.13422595 4.67320159 1.1875 6 C0.66542969 6.7425 0.14335938 7.485 -0.39453125 8.25 C-0.92433594 8.8275 -1.45414063 9.405 -2 10 C-2.99 10 -3.98 10 -5 10 C-3.99686938 7.76224708 -3.15523165 6.1492612 -1.375 4.4375 C0.34561132 2.97021721 0.34561132 2.97021721 0 0 Z " fill="#404040" transform="translate(544,99)"/>
<path d="M0 0 C0.33 0 0.66 0 1 0 C1 4.95 1 9.9 1 15 C-0.32 15 -1.64 15 -3 15 C-3 14.34 -3 13.68 -3 13 C-2.34 12.67 -1.68 12.34 -1 12 C-0.53101037 9.1840151 -0.53101037 9.1840151 -0.375 5.9375 C-0.30023437 4.83277344 -0.22546875 3.72804688 -0.1484375 2.58984375 C-0.09945312 1.73519531 -0.05046875 0.88054687 0 0 Z " fill="#1D1D1D" transform="translate(537,70)"/>
<path d="M0 0 C1.65 0.33 3.3 0.66 5 1 C4 4 4 4 3 6 C2.34 6 1.68 6 1 6 C-0.0625 4.125 -0.0625 4.125 -1 2 C-0.67 1.34 -0.34 0.68 0 0 Z " fill="#7A7A7A" transform="translate(454,81)"/>
<path d="M0 0 C0.66 0 1.32 0 2 0 C2.66 0.99 3.32 1.98 4 3 C4.99 2.67 5.98 2.34 7 2 C6.67 3.32 6.34 4.64 6 6 C4.125 5.8125 4.125 5.8125 2 5 C0.75 2.4375 0.75 2.4375 0 0 Z " fill="#474747" transform="translate(233,221)"/>
</svg>
