<svg xmlns:inkscape="http://www.inkscape.org/namespaces/inkscape" xmlns:sodipodi="http://sodipodi.sourceforge.net/DTD/sodipodi-0.dtd" xmlns="http://www.w3.org/2000/svg" xmlns:svg="http://www.w3.org/2000/svg" xmlns:rdf="http://www.w3.org/1999/02/22-rdf-syntax-ns#" xmlns:cc="http://creativecommons.org/ns#" xmlns:dc="http://purl.org/dc/elements/1.1/" viewBox="0 0 16.933333 18.1666675" version="1.1" x="0px" y="0px"><g><path style="color:#000000;paint-order:fill markers stroke;" d="m 8.4273906,0.79271667 c -2.1234559,0 -3.843692,1.70220203 -3.843692,3.81061903 v 2.343527 H 3.7889141 c -0.8124243,0 -1.4763935,0.658091 -1.4763935,1.467094 v 6.2595673 c 0,0.809003 0.6639692,1.467093 1.4763935,1.467093 h 9.3555029 c 0.812427,0 1.476396,-0.65809 1.476396,-1.467093 V 8.4139567 c 0,-0.809003 -0.663969,-1.467094 -1.476396,-1.467094 h -0.873332 v -2.343527 c 0,-2.108417 -1.720239,-3.81061903 -3.8436944,-3.81061903 z m 0,0.52916603 c 1.8419654,0 3.3145284,1.45958 3.3145284,3.281453 v 2.343527 H 5.1128653 v -2.343527 c 0,-1.821873 1.472557,-3.281453 3.3145253,-3.281453 z m -4.6384765,6.154663 h 1.0604024 7.1561505 1.13895 c 0.530936,0 0.947229,0.414952 0.947229,0.937411 v 6.2595673 c 0,0.522457 -0.416293,0.937408 -0.947229,0.937408 H 3.7889141 c -0.5309367,0 -0.9472269,-0.414951 -0.9472269,-0.937408 V 8.4139567 c 0,-0.522459 0.4162902,-0.937411 0.9472269,-0.937411 z m 4.6777512,2.037085 c -0.7821586,0 -1.4236858,0.6348353 -1.4236858,1.4138663 0,0.689454 0.5023749,1.266079 1.160137,1.389581 v 0.991153 A 0.26458349,0.26458349 0 0 0 8.4666653,13.57178 0.26458349,0.26458349 0 0 0 8.7322832,13.308231 V 12.31656 c 0.65659,-0.124447 1.158068,-0.700445 1.158068,-1.389063 0,-0.779031 -0.6415246,-1.4138663 -1.4236859,-1.4138663 z m -0.023254,0.5291663 c 0.00774,-1.91e-4 0.015462,0 0.023254,0 0.4987132,0 0.8945192,0.394211 0.8945192,0.8847 0,0.490493 -0.395806,0.884701 -0.8945192,0.884701 -0.4987104,0 -0.8945192,-0.394208 -0.8945192,-0.884701 0,-0.482827 0.3835824,-0.872643 0.8712652,-0.8847 z" fill="#000000" fill-rule="evenodd" stroke-width="1" stroke-linecap="round" stroke-linejoin="round"/></g><text x="0" y="31.933334" fill="#000000" font-size="5px" font-weight="bold" font-family="'Helvetica Neue', Helvetica, Arial-Unicode, Arial, Sans-serif">Created by Alzam</text><text x="0" y="36.933334" fill="#000000" font-size="5px" font-weight="bold" font-family="'Helvetica Neue', Helvetica, Arial-Unicode, Arial, Sans-serif">from the Noun Project</text></svg>