<svg xmlns="http://www.w3.org/2000/svg" version="1.1" viewBox="-5.0 -10.0 110.0 110.0">
 <path d="m30.398 84h39.102c7.5 0 13.5-6 13.5-13.398 0-12.5-10.102-22.602-22.602-22.602h-20.797c-12.5 0-22.602 10.102-22.602 22.602 0 7.3984 6 13.398 13.398 13.398zm9.2031-32h20.898c10.199 0 18.5 8.3008 18.5 18.602 0 5.1992-4.1992 9.3984-9.3984 9.3984h-39.203c-5.1992 0-9.3984-4.1992-9.3984-9.3984 0-10.301 8.3008-18.602 18.602-18.602z"/>
 <path d="m50 45c8.8008 0 16-7.1992 16-16s-7.1992-16-16-16-16 7.1992-16 16 7.1992 16 16 16zm0-28c6.6016 0 12 5.3984 12 12s-5.3984 12-12 12-12-5.3984-12-12 5.3984-12 12-12z"/>
<text x="0.0" y="117.5" font-size="5.0" font-weight="bold" font-family="Arbeit Regular, Helvetica, Arial-Unicode, Arial, Sans-serif" fill="#000000">Created by Besticons</text><text x="0.0" y="122.5" font-size="5.0" font-weight="bold" font-family="Arbeit Regular, Helvetica, Arial-Unicode, Arial, Sans-serif" fill="#000000">from Noun Project</text></svg>